<svg xmlns="http://www.w3.org/2000/svg" xmlns:xlink="http://www.w3.org/1999/xlink" width="64" height="64" viewBox="0 0 64 64"><defs><linearGradient x1=".3" x2=".7" gradientUnits="userSpaceOnUse" gradientTransform="matrix(14.64464 63.46012 -55.56727 12.82322 321.798 277.04)" id="a"><stop offset="0" stop-color="#2f1636"/><stop offset="1" stop-color="#6c42a4"/></linearGradient><linearGradient x1=".3" x2=".7" gradientUnits="userSpaceOnUse" gradientTransform="matrix(-14.64464 -63.46012 55.56727 -12.82322 281.048 340.913)" id="b"><stop offset="0" stop-color="#2f1636"/><stop offset="1" stop-color="#6c42a4"/></linearGradient><linearGradient xlink:href="#a" id="c" gradientUnits="userSpaceOnUse" gradientTransform="matrix(14.64464 63.46012 -55.56727 12.82322 321.798 277.04)" x1=".3" x2=".7"/><linearGradient xlink:href="#b" id="d" gradientUnits="userSpaceOnUse" gradientTransform="matrix(-14.64464 -63.46012 55.56727 -12.82322 281.048 340.913)" x1=".3" x2=".7"/><linearGradient xlink:href="#a" id="e" gradientUnits="userSpaceOnUse" gradientTransform="matrix(14.64464 63.46012 -55.56727 12.82322 321.798 277.04)" x1=".3" x2=".7"/><linearGradient xlink:href="#b" id="f" gradientUnits="userSpaceOnUse" gradientTransform="matrix(-14.64464 -63.46012 55.56727 -12.82322 281.048 340.913)" x1=".3" x2=".7"/></defs><path d="M301.423 331.654c12.523 0 22.678-10.156 22.678-22.678 0-10.565-7.229-19.444-17.009-21.962-9.78 2.518-17.007 11.397-17.007 21.962 0-6.261 5.077-11.338 11.338-11.338 6.261 0 11.339 5.077 11.339 11.338 0 10.565-7.228 19.445-17.008 21.963 1.812.466 3.712.714 5.67.714" fill="url(#c)" fill-rule="evenodd" transform="matrix(1.40986 .05857 .05858 -1.40987 -411.07 449.97)"/><path d="M301.423 286.3c-12.522 0-22.677 10.154-22.677 22.677 0 10.564 7.228 19.444 17.008 21.962 9.78-2.518 17.008-11.398 17.008-21.962 0 6.26-5.078 11.338-11.339 11.338s-11.338-5.077-11.338-11.338c0-10.565 7.228-19.445 17.008-21.963a22.708 22.708 0 0 0-5.67-.715" fill="url(#d)" fill-rule="evenodd" transform="matrix(1.40986 .05857 .05858 -1.40987 -411.07 449.97)"/><g><path d="M301.423 331.654c12.523 0 22.678-10.156 22.678-22.678 0-10.565-7.229-19.444-17.009-21.962-9.78 2.518-17.007 11.397-17.007 21.962 0-6.261 5.077-11.338 11.338-11.338 6.261 0 11.339 5.077 11.339 11.338 0 10.565-7.228 19.445-17.008 21.963 1.812.466 3.712.714 5.67.714" fill="url(#e)" fill-rule="evenodd" transform="matrix(1.4111 0 0 -1.41111 -393.336 468)"/><path d="M301.423 286.3c-12.522 0-22.677 10.154-22.677 22.677 0 10.564 7.228 19.444 17.008 21.962 9.78-2.518 17.008-11.398 17.008-21.962 0 6.26-5.078 11.338-11.339 11.338s-11.338-5.077-11.338-11.338c0-10.565 7.228-19.445 17.008-21.963a22.708 22.708 0 0 0-5.67-.715" fill="url(#f)" fill-rule="evenodd" transform="matrix(1.4111 0 0 -1.41111 -393.336 468)"/></g></svg>