<svg xmlns="http://www.w3.org/2000/svg" xmlns:xlink="http://www.w3.org/1999/xlink" viewBox="0 0 300 50" height="50" width="300"><defs><linearGradient id="a" gradientTransform="matrix(14.64464 63.46012 -55.56727 12.82322 321.798 277.04)" gradientUnits="userSpaceOnUse" x2=".7" x1=".3"><stop offset="0" stop-color="#2f1636"/><stop offset="1" stop-color="#6c42a4"/></linearGradient><linearGradient id="b" gradientTransform="matrix(-14.64464 -63.46012 55.56727 -12.82322 281.048 340.913)" gradientUnits="userSpaceOnUse" x2=".7" x1=".3"><stop offset="0" stop-color="#2f1636"/><stop offset="1" stop-color="#6c42a4"/></linearGradient><linearGradient x2=".7" x1=".3" gradientTransform="matrix(14.64464 63.46012 -55.56727 12.82322 321.798 277.04)" gradientUnits="userSpaceOnUse" id="c" xlink:href="#a"/><linearGradient x2=".7" x1=".3" gradientTransform="matrix(-14.64464 -63.46012 55.56727 -12.82322 281.048 340.913)" gradientUnits="userSpaceOnUse" id="d" xlink:href="#b"/><linearGradient x2=".7" x1=".3" gradientTransform="matrix(14.64464 63.46012 -55.56727 12.82322 321.798 277.04)" gradientUnits="userSpaceOnUse" id="e" xlink:href="#a"/><linearGradient x2=".7" x1=".3" gradientTransform="matrix(-14.64464 -63.46012 55.56727 -12.82322 281.048 340.913)" gradientUnits="userSpaceOnUse" id="f" xlink:href="#b"/></defs><path d="M301.423 331.654c12.523 0 22.678-10.156 22.678-22.678 0-10.565-7.229-19.444-17.009-21.962-9.78 2.518-17.007 11.397-17.007 21.962 0-6.261 5.077-11.338 11.338-11.338 6.261 0 11.339 5.077 11.339 11.338 0 10.565-7.228 19.445-17.008 21.963 1.812.466 3.712.714 5.67.714" fill="url(#c)" fill-rule="evenodd" transform="matrix(1.08284 .1703 .1703 -1.08286 -354.15 308.246)"/><path d="M301.423 286.3c-12.522 0-22.677 10.154-22.677 22.677 0 10.564 7.228 19.444 17.008 21.962 9.78-2.518 17.008-11.398 17.008-21.962 0 6.26-5.078 11.338-11.339 11.338s-11.338-5.077-11.338-11.338c0-10.565 7.228-19.445 17.008-21.963a22.708 22.708 0 0 0-5.67-.715" fill="url(#d)" fill-rule="evenodd" transform="matrix(1.08284 .1703 .1703 -1.08286 -354.15 308.246)"/><g><path d="M301.423 331.654c12.523 0 22.678-10.156 22.678-22.678 0-10.565-7.229-19.444-17.009-21.962-9.78 2.518-17.007 11.397-17.007 21.962 0-6.261 5.077-11.338 11.338-11.338 6.261 0 11.339 5.077 11.339 11.338 0 10.565-7.228 19.445-17.008 21.963 1.812.466 3.712.714 5.67.714" fill="url(#e)" fill-rule="evenodd" transform="matrix(1.09615 0 0 -1.09617 -305.54 363.693)"/><path d="M301.423 286.3c-12.522 0-22.677 10.154-22.677 22.677 0 10.564 7.228 19.444 17.008 21.962 9.78-2.518 17.008-11.398 17.008-21.962 0 6.26-5.078 11.338-11.339 11.338s-11.338-5.077-11.338-11.338c0-10.565 7.228-19.445 17.008-21.963a22.708 22.708 0 0 0-5.67-.715" fill="url(#f)" fill-rule="evenodd" transform="matrix(1.09615 0 0 -1.09617 -305.54 363.693)"/><g fill-rule="evenodd"><path d="M276.584 36.647h8.733V26.459h5.822v10.188h8.732V16.27a2.911 2.911 0 0 0-2.91-2.91h-17.466a2.911 2.911 0 0 0-2.91 2.91v20.376zm8.733-13.1v-7.276h5.822v7.277h-5.822zM75.738 20.846l12.753 4.642a2.912 2.912 0 0 1 1.8 2.691v5.557a2.911 2.911 0 0 1-2.91 2.91H67.005v-2.91H81.56V29.16l-12.755-4.643a2.913 2.913 0 0 1-1.799-2.69V16.27a2.911 2.911 0 0 1 2.911-2.91h20.376v2.91H75.738v4.575zM209.636 26.459v10.188h8.732v-8.733a2.911 2.911 0 0 0-2.91-2.91c1.599 0 2.91-1.312 2.91-2.912v-5.821a2.911 2.911 0 0 0-2.91-2.91h-17.466a2.911 2.911 0 0 0-2.91 2.91v20.376h8.732V26.459h5.822zm-5.822-2.911h5.822V16.27h-5.822v7.277zM131.043 36.647h8.733V16.27h5.821v20.376h8.733V16.27a2.911 2.911 0 0 0-2.91-2.91h-17.466a2.911 2.911 0 0 0-2.91 2.91v20.376zM165.973 36.647h20.376v-2.911h-14.554v-7.277h9.813v-2.911h-9.813V16.27h14.554v-2.91h-20.376a2.911 2.911 0 0 0-2.91 2.91v17.465c0 1.6 1.31 2.91 2.91 2.91M259.12 36.647h8.732V13.36h-5.822a2.911 2.911 0 0 0-2.91 2.91v20.377zM238.744 26.459h2.91v7.277h-5.821V16.27h14.554v-2.91H230.011a2.911 2.911 0 0 0-2.91 2.91v17.465a2.911 2.911 0 0 0 2.91 2.91h17.465a2.911 2.911 0 0 0 2.911-2.91v-7.277a2.911 2.911 0 0 0-2.91-2.911h-8.733v2.91zM99.024 13.36h8.733v10.188h5.821V13.36h8.733v10.188a2.911 2.911 0 0 1-2.91 2.91h-4.367v10.189H106.3V26.459h-4.366a2.911 2.911 0 0 1-2.91-2.911V13.36z"/></g></g></svg>