<svg xmlns="http://www.w3.org/2000/svg" height="92.903" viewBox="0 0 64 92.903" width="64"><path d="M61.977.08v61.984H0l1.266 1.264h61.976V1.344L61.977.08zM13.59 6.404v.074c1.77.745 2.28 2.878.933 4.235h38.21v-.176L13.59 6.404zm.933 4.31c-1.484 1.056-3.263.59-3.925-1.263h-.09l3.842 47.554h.173v-46.29zm18.668 4.345l.003 2.698c.462-.246.837-.462 1.332-.604.33-.093.688-.195 1.037-.16.51.053.702.394.645.752.45-.242 1.3-.374 1.71-.002.39.358.47.942.34 1.43-.456-.488-1.042-.612-1.66-.31-.466.23-.852.63-1.064 1.097.202.23.845.047 1.067-.067.244-.126.458-.33.73-.627-.035.44-.088.852-.248 1.068-.303.415-.606.498-1.123.678-.404.14-.813.336-1.212.742-.346.46-.433 1.254-.326 1.93.115.743.388 1.528.62 2.296.23.77.42 1.526.362 2.22 1.186.19 3.09-1.127 3.76-1.667.74-.598 1.5-1.295 1.867-1.97.3-.55.39-1.675-.173-2.55-1.065-1.656-.484-4.332 1.772-5.013 1.38-.403 3.283-.014 4.138 1.527.832 1.503 1.025 3.196 1 4.97-.04 2.717-.148 4.407.357 6.435.247.993.712 1.91 1.447 2.752-.578.684-1.544.213-2.285-.42-1.1-.938-2.037-3.057-2.642-6.463l-.116.423c-.028 2.05.24 3.618.683 5.45.45 1.855 1.1 2.932 2.69 4.145-.873.788-1.753.45-2.522-.136-1.527-1.163-2.187-2.486-2.812-5.16l-.115.15c-.133 1.568.032 3.122.535 4.53.48 1.348 1.41 2.638 2.61 3.618-.815.735-1.702.25-2.442-.285-1.044-.756-2.6-2.218-3.1-5.086l-.13.112c-.053 1.64.1 3.116.455 4.385.363 1.294 1.46 2.835 2.563 3.574-.92.78-1.75.302-2.422-.215-1.784-1.374-2.908-3.316-3.32-5.895l-.16.082c-.19 2.8-.178 5.874 2.33 7.666l-.993.63.582.987c.256.438 2.576-.753 3.52 0 .38.305.626.792.352 1.41l-.057-.025c-.026-.437-.245-.665-.535-.785-.42-.175-1.063-.128-1.545.422-.93.63-1.588.183-2.068.814-.286.374-.28.703-.16 1.072l-.047.03c-1.284-.674-.085-1.917-.322-2.333l-.625-1.097-1.006.608c-.09-.734-1.235-4.64-1.926-4.904-.18.258-.17.942-.196 1.412-.036.66.264 1.14.197 2.06-.027.4-.227.95-.548 1.5.316.207.46.53.45.907-.008.423-.197.912-.327 1.31-.17.515-.315.903-.123.903.553-.287 1.07-.338 1.514-.21.642.185 1.05.8 1.633 1.1.67.345 1.24.285 2.008.577-1.047.4-1.198 1.472-2.62 1.252-.858-.134-2.142-1.753-2.376-1.62-.163.48-.057 1.04.034 1.796.045.376.088.803.093 1.293.003.49-.03 1.04-.137 1.67-.145.84-.45 1.917-.942 3.068h.017C52.432 50.58 52.57 23.68 52.732 15.06h-19.54zm.003 2.698c-.462-.246-.836-.462-1.332-.604-.33-.093-.688-.195-1.038-.16-.51.053-.698.395-.642.752-.45-.242-1.3-.374-1.71-.002-.39.358-.47.942-.34 1.43.455-.488 1.04-.612 1.66-.31.464.23.85.628 1.062 1.097-.2.23-.847.047-1.067-.067-.244-.126-.457-.33-.73-.627.034.44.088.852.248 1.068.305.415.605.5 1.123.678.403.14.813.336 1.213.742.345.46.43 1.253.325 1.93-.116.742-.39 1.526-.62 2.295-.232.768-.42 1.527-.365 2.22-1.184.192-3.09-1.127-3.757-1.667-.74-.598-1.5-1.296-1.87-1.972-.297-.55-.385-1.672.178-2.546 1.064-1.658.483-4.333-1.772-5.014-1.384-.403-3.287-.014-4.14 1.527-.834 1.503-1.024 3.195-1 4.97.04 2.717.147 4.407-.358 6.435a6.505 6.505 0 0 1-1.446 2.752c.577.684 1.543.214 2.286-.42 1.1-.938 2.036-3.057 2.64-6.463l.117.423c.027 2.05-.24 3.618-.683 5.45-.448 1.855-1.103 2.932-2.69 4.145.872.788 1.754.45 2.522-.136 1.53-1.164 2.185-2.486 2.81-5.16l.116.15c.133 1.568-.032 3.122-.534 4.53-.48 1.348-1.412 2.638-2.61 3.618.814.735 1.702.25 2.44-.285 1.045-.756 2.6-2.217 3.1-5.086l.13.112c.054 1.64-.098 3.115-.452 4.383-.36 1.295-1.46 2.837-2.563 3.576.918.78 1.75.302 2.42-.215 1.787-1.373 2.912-3.315 3.32-5.895l.16.082c.193 2.8.18 5.874-2.33 7.666l.997.627-.582.99c-.257.437-2.58-.753-3.524 0-.38.304-.624.79-.35 1.41l.057-.025c.025-.437.247-.667.536-.787.42-.174 1.062-.126 1.543.424.932.63 1.587.182 2.07.812.285.374.28.703.158 1.072l.047.03c1.285-.674.085-1.917.322-2.333l.625-1.097 1.006.608c.092-.734 1.236-4.64 1.928-4.904.18.258.17.942.197 1.412.036.66-.265 1.14-.2 2.06.03.4.23.95.55 1.5-.315.208-.46.53-.452.907.01.422.2.912.33 1.31.17.514.317.903.123.903-.55-.287-1.066-.337-1.512-.21-.642.186-1.05.8-1.632 1.1-.67.345-1.243.285-2.01.577 1.046.4 1.197 1.472 2.62 1.252.857-.134 2.142-1.753 2.376-1.62.163.482.056 1.04-.035 1.796-.046.375-.09.803-.095 1.293a9.44 9.44 0 0 0 .14 1.67c.142.838.438 1.92.927 3.068h.01l.007-23.49c-7.148-.452-10.615-6.05-10.758-13.248h.12c.53 5.336 4.85 11.044 10.637 11.23l.003-13.738zm-2.248-.12c.38-.023.924.162 1.162.39.177.167.25.382.354.595-.014.04-.112-.048-.323-.11-.346-.106-.953.01-1.14-.218a1.53 1.53 0 0 0-.46-.363c.012-.197.18-.283.408-.295zm4.494 0c-.38-.023-.923.162-1.16.39-.178.167-.25.382-.356.595.013.04.113-.047.324-.11.345-.104.952.01 1.14-.218.13-.144.293-.283.462-.363-.012-.196-.182-.282-.41-.295zm-13.042.706c.395 0 .72.34.72.76 0 .417-.325.76-.72.76-.396 0-.716-.343-.716-.76 0-.42.32-.76.716-.76zm21.59 0c-.395 0-.718.343-.718.76s.323.76.718.76c.397 0 .717-.343.717-.76s-.32-.76-.717-.76zm-20.27 1.334c.394 0 .718.34.718.76 0 .418-.324.76-.72.76-.395 0-.716-.342-.716-.76 0-.42.32-.76.717-.76zm18.952.002c-.397 0-.72.34-.72.758s.323.76.72.76c.394 0 .717-.342.717-.76 0-.42-.323-.758-.717-.758zm-21.39.218c.397 0 .72.34.72.758 0 .42-.323.758-.72.758s-.716-.34-.716-.758c0-.417.32-.758.717-.758zm23.824 0c-.397 0-.717.34-.717.758 0 .42.32.76.717.76.394 0 .718-.34.718-.76 0-.417-.324-.758-.718-.758zm-1.27.368c-.528 5.336-4.852 11.045-10.637 11.23v2.018c7.146-.45 10.613-6.05 10.756-13.248h-.12zM13.342 70.45c.034.47.05 1.307.05 2.513v3.36c0 1.925-.016 3.174-.05 3.747.17-.025.34-.04.512-.04.18 0 .364.015.552.04-.042-.932-.064-2.822-.064-5.67 0-1.847.022-3.164.064-3.95a8.46 8.46 0 0 1-.552.025c-.12 0-.29-.01-.512-.026zm22.29 0c.042 1.684.063 3.287.063 4.81 0 1.274-.02 2.877-.064 4.81.19-.042.36-.064.515-.064.162 0 .342.022.54.064a45.235 45.235 0 0 1-.04-1.502v-.91c0-1.18.086-1.938.257-2.27.29-.566.747-.847 1.37-.847.532 0 .908.17 1.13.507.223.338.334.876.334 1.61 0 .71-.02 1.848-.064 3.413.197-.042.373-.064.527-.064.162 0 .336.022.525.064-.035-1.146-.05-1.8-.05-1.963 0-.273.004-.63.016-1.072.014-.44.02-.742.02-.904 0-1.487-.684-2.232-2.052-2.232-.804 0-1.466.39-1.988 1.168a95.91 95.91 0 0 1-.025-1.757c0-.95.016-1.903.05-2.86a3.68 3.68 0 0 1-.525.05c-.103 0-.283-.017-.54-.05zm17.218 0c.042 1.36.064 2.962.064 4.81 0 1.556-.022 3.16-.064 4.81.196-.042.376-.064.54-.064.16 0 .34.022.538.064a35.43 35.43 0 0 1-.078-2.283v-.72c0-.118.043-.178.13-.178.238 0 1.14 1.06 2.706 3.18.196-.034.418-.052.666-.052.265 0 .505.018.718.052a469.52 469.52 0 0 0-3.013-3.53l1.154-1.09c.77-.726 1.327-1.205 1.67-1.436a4.28 4.28 0 0 1-.566.04c-.18 0-.367-.015-.564-.04-.642.812-1.236 1.472-1.783 1.976-.462.428-.762.64-.9.64-.144 0-.217-.07-.217-.216v-.437c0-1.6.026-3.44.078-5.528-.24.033-.42.05-.54.05-.12 0-.3-.017-.538-.05zm-35.895.69a.643.643 0 0 0-.463 1.104c.128.13.284.194.463.194.18 0 .333-.065.46-.194a.63.63 0 0 0 .194-.46c0-.18-.066-.334-.194-.458s-.28-.185-.46-.185zm33.318 0a.64.64 0 0 0-.46.186.613.613 0 0 0-.192.457c0 .18.064.333.192.46a.63.63 0 0 0 .46.195.63.63 0 0 0 .464-.194.624.624 0 0 0 .192-.46.61.61 0 0 0-.192-.458.642.642 0 0 0-.463-.185zm-47.457.116c-.274 0-.648.015-1.123.045s-.814.046-1.02.046c-.17 0-.38-.012-.628-.037.05 1.358.076 2.82.076 4.385C.12 77.2.097 78.66.046 80.07c.24-.042.454-.064.642-.064.12 0 .298.017.537.05a39.01 39.01 0 0 1-.064-2.167v-1.835c.274.017.6.025.976.025 1.155 0 2.036-.225 2.643-.674s.91-1.083.91-1.904c0-.71-.25-1.263-.745-1.656-.496-.394-1.205-.59-2.13-.59zm-.81.5c.865 0 1.493.142 1.886.424.394.282.592.762.592 1.437 0 1.334-.92 2-2.76 2-.128 0-.32-.008-.576-.025v-1.154c0-.84.022-1.72.064-2.643.283-.026.547-.04.795-.04zm18.524.476a3.537 3.537 0 0 1-1.027.32c.017.445.025.805.025 1.08v.42c-.273 0-.546-.013-.82-.038 0 .017.005.052.014.103v.104c0 .07-.01.18-.028.333.23-.026.455-.037.668-.037h.14v.435c0 .65-.01 1.364-.03 2.138a92.405 92.405 0 0 0-.034 1.35c0 .617.126 1.065.373 1.343.25.28.667.417 1.257.417.496 0 .963-.144 1.4-.435l-.09-.282c-.377.18-.675.27-.898.27-.394 0-.672-.127-.835-.38-.162-.25-.244-.664-.244-1.237 0-.42.01-.96.027-1.617.017-.66.025-1.112.025-1.36l.026-.64c.093-.01.25-.014.462-.014.325 0 .718.013 1.18.04v-.104c0-.154.014-.294.04-.422-.642.05-1.198.076-1.67.076v-.848c0-.128.015-.464.04-1.012zm5.127 1.655c-.89 0-1.604.288-2.142.865-.54.577-.81 1.345-.81 2.303 0 .923.283 1.676.843 2.257.56.582 1.287.874 2.185.874.787 0 1.515-.245 2.182-.733V79.3c0-.102.008-.265.025-.488-.58.573-1.24.86-1.974.86-1.437 0-2.156-.89-2.156-2.668v-.04h4.414c0-.033.003-.08.01-.14v-.14c0-.898-.224-1.59-.673-2.073-.447-.482-1.082-.723-1.903-.723zm20.002 0c-.856 0-1.527.414-2.015 1.244v-.23a2.855 2.855 0 0 1-.013-.232c0-.13.008-.346.025-.654a2.092 2.092 0 0 1-.5.052c-.188 0-.363-.018-.525-.052.034.607.05 1.578.05 2.912v.912c0 1.01-.016 1.753-.05 2.232.196-.042.37-.064.525-.064.163 0 .343.022.54.064a49.494 49.494 0 0 1-.04-2.4v-.576c0-.967.145-1.635.436-2.002.29-.368.69-.55 1.193-.55.975 0 1.463.632 1.463 1.897a67.5 67.5 0 0 1-.077 3.63c.197-.042.37-.064.525-.064s.33.022.526.064a50.495 50.495 0 0 1-.026-2.945c.01-.415.014-.73.014-.943 0-1.53-.685-2.295-2.053-2.295zm-36.78.01c-.872 0-1.598.295-2.175.88-.578.586-.866 1.342-.866 2.266 0 .932.284 1.688.853 2.27.57.58 1.298.873 2.187.873.88 0 1.607-.29 2.18-.868.572-.577.86-1.334.86-2.275 0-.932-.282-1.69-.847-2.272-.564-.58-1.295-.872-2.193-.872zm23.482 0c-.958 0-1.727.288-2.308.86-.582.574-.873 1.34-.873 2.298 0 .95.277 1.71.83 2.283.55.573 1.275.86 2.173.86.915 0 1.646-.214 2.193-.64a1.73 1.73 0 0 1-.012-.257c0-.076.01-.236.026-.476-.608.616-1.254.924-1.938.924-.675 0-1.217-.24-1.623-.725-.407-.483-.61-1.142-.61-1.98 0-.872.188-1.547.564-2.022.376-.473.903-.71 1.578-.71.804 0 1.387.402 1.746 1.206.095-.42.21-.787.346-1.104a4.48 4.48 0 0 0-2.092-.514zm28.81.015c-.805 0-1.495.24-2.068.72l-.025.68h.103c.4-.61.953-.912 1.654-.912.513 0 .878.137 1.096.41.218.274.328.697.328 1.27v.27c-.136.12-.406.223-.808.308l-1.424.28c-.992.215-1.488.77-1.488 1.67 0 1.05.59 1.578 1.77 1.578.728 0 1.364-.287 1.912-.86.076.496.312.744.705.744.24 0 .59-.068 1.052-.205l-.05-.258a1.477 1.477 0 0 1-.22.014c-.257 0-.423-.086-.5-.257-.043-.102-.065-.3-.065-.59l.05-2.552v-.154c0-.744-.157-1.288-.473-1.634-.317-.347-.833-.52-1.55-.52zm-44.743.102c.04 1.043.06 2.002.06 2.875 0 .948-.02 2.01-.06 3.18.195-.042.37-.064.524-.064.163 0 .337.022.525.064a89.678 89.678 0 0 1-.065-3.18c0-.865.022-1.824.064-2.876-.146.034-.32.052-.526.052-.188 0-.363-.018-.525-.052zm33.317 0c.043 1.043.064 2.002.064 2.875 0 .948-.02 2.01-.063 3.18a2.56 2.56 0 0 1 .525-.064c.163 0 .34.022.528.064a87.51 87.51 0 0 1-.065-3.18c0-.865.022-1.824.065-2.876a2.355 2.355 0 0 1-.528.052 2.56 2.56 0 0 1-.525-.052zm-40.88.27c1.308 0 1.962.945 1.962 2.835 0 1.786-.65 2.68-1.95 2.68-1.3 0-1.95-.923-1.95-2.77 0-1.83.645-2.747 1.936-2.747zm16.74 0c.496 0 .887.178 1.173.532.287.355.43.85.43 1.483v.216h-3.375c.026-.676.205-1.224.54-1.643.333-.393.744-.59 1.23-.59zm36.628 2.605v1.653a.75.75 0 0 1-.218.55c-.377.377-.805.565-1.284.565-.76 0-1.14-.406-1.14-1.22 0-.477.21-.824.63-1.038.332-.17 1.003-.34 2.012-.51zM29.75 83.153c.044.89.065 2.103.065 3.643v.334a9.18 9.18 0 0 1-.898.577v.668c.48-.385.773-.62.885-.705v1.86c0 1.17-.017 2.253-.05 3.245a3.547 3.547 0 0 1 1.063 0c-.042-.898-.064-2.814-.064-5.748.403-.265.71-.46.925-.59v-.68c-.282.25-.59.492-.924.73v-.14c0-1.214.023-2.278.065-3.193a8.41 8.41 0 0 1-.55.026 7.3 7.3 0 0 1-.514-.026zm23.202 0c.043 1.36.065 2.963.065 4.81 0 1.557-.022 3.16-.065 4.81.197-.04.377-.063.54-.063.162 0 .34.023.538.065a36.166 36.166 0 0 1-.078-2.283v-.72c0-.118.043-.178.13-.178.24 0 1.14 1.06 2.706 3.18.197-.033.418-.05.666-.05.265 0 .505.017.72.05a463.522 463.522 0 0 0-3.015-3.528l1.153-1.09c.77-.727 1.326-1.204 1.668-1.435a4.273 4.273 0 0 1-1.127 0c-.642.813-1.236 1.47-1.784 1.975-.463.428-.762.64-.9.64-.145 0-.218-.07-.218-.216v-.438c0-1.6.027-3.44.078-5.528-.24.034-.42.05-.54.05s-.298-.016-.538-.05zm-52.93.93a582.74 582.74 0 0 1 2.723 8.69c.17-.04.318-.063.445-.063.128 0 .276.023.446.065l2.38-7.113a118.79 118.79 0 0 1 2.34 7.125c.128-.042.28-.062.46-.062.16 0 .31.016.445.05 1.392-4.2 2.36-7.096 2.903-8.69a1.69 1.69 0 0 1-.434.05c-.145 0-.28-.017-.407-.05a89.577 89.577 0 0 1-2.215 7.354 161.996 161.996 0 0 1-2.443-7.356c-.127.034-.267.05-.42.05a1.58 1.58 0 0 1-.408-.05 98.944 98.944 0 0 1-2.39 7.482 174.47 174.47 0 0 1-2.204-7.482c-.178.034-.38.05-.61.05-.228 0-.432-.016-.61-.05zm19.438 2.52c-.872 0-1.6.293-2.176.878-.577.586-.865 1.342-.865 2.266 0 .932.284 1.688.852 2.27.57.58 1.298.873 2.188.873.88 0 1.607-.29 2.18-.867.573-.577.86-1.334.86-2.275 0-.932-.282-1.69-.847-2.27-.564-.583-1.295-.874-2.193-.874zm7.043 0c-.958 0-1.727.286-2.31.86-.58.572-.872 1.338-.872 2.296 0 .95.278 1.71.83 2.283.55.573 1.275.86 2.173.86.915 0 1.648-.214 2.196-.64a1.66 1.66 0 0 1-.015-.257c0-.077.008-.237.025-.477-.607.615-1.253.923-1.937.923-.676 0-1.217-.24-1.623-.724-.407-.485-.61-1.144-.61-1.982 0-.872.19-1.547.565-2.02.376-.476.902-.712 1.578-.712.804 0 1.387.4 1.746 1.205.093-.418.208-.786.345-1.103a4.48 4.48 0 0 0-2.092-.513zm23.254 0c-.59 0-1.067.168-1.426.5-.358.335-.536.758-.536 1.27 0 .454.108.81.326 1.065.218.256.57.452 1.06.59l.59.167c.674.188 1.012.538 1.012 1.05 0 .36-.11.645-.334.855-.222.21-.525.314-.91.314-.624 0-1.147-.325-1.566-.975-.077.335-.18.663-.307.988.436.308.987.463 1.654.463.675 0 1.223-.19 1.642-.57.42-.38.63-.86.63-1.443 0-.744-.413-1.237-1.234-1.477l-.87-.255c-.65-.19-.977-.548-.977-1.08 0-.315.103-.573.303-.774.202-.2.465-.302.79-.302.504 0 1 .283 1.488.848.052-.274.142-.543.27-.81-.453-.28-.988-.422-1.603-.422zm-14.795.013c-.804 0-1.494.24-2.067.72l-.025.68h.102c.402-.61.955-.912 1.656-.912.513 0 .878.137 1.096.41.218.274.328.697.328 1.27v.27c-.137.12-.407.223-.81.308l-1.423.282c-.993.213-1.49.77-1.49 1.667 0 1.052.59 1.58 1.77 1.58.728 0 1.365-.288 1.913-.86.076.495.312.743.705.743.24 0 .59-.068 1.052-.205l-.05-.258a1.477 1.477 0 0 1-.22.014c-.256 0-.422-.087-.5-.258-.042-.102-.063-.3-.063-.59l.05-2.552v-.155c0-.742-.158-1.287-.474-1.633-.317-.347-.833-.52-1.55-.52zm26.228 0c-.803 0-1.493.24-2.066.72l-.025.68h.1c.402-.61.955-.912 1.656-.912.514 0 .878.137 1.096.41.218.274.328.697.328 1.27v.27c-.137.12-.406.223-.808.308-.48.094-.954.188-1.424.282-.992.213-1.488.77-1.488 1.667 0 1.052.59 1.58 1.77 1.58.726 0 1.364-.288 1.91-.86.078.495.313.743.706.743.24 0 .59-.068 1.053-.205l-.052-.258c-.05.008-.125.014-.22.014-.255 0-.42-.087-.5-.258-.04-.102-.063-.3-.063-.59l.05-2.552v-.155c0-.742-.157-1.287-.474-1.633-.315-.347-.83-.52-1.55-.52zm-45.916.04c-.607 0-1.14.49-1.603 1.474 0-.53.028-1 .08-1.41-.164.035-.343.05-.54.05s-.382-.015-.553-.05c.043.462.065 1.082.065 1.86 0 1.78-.022 3.173-.065 4.182.17-.026.334-.04.488-.04.206 0 .39.02.55.053a41.85 41.85 0 0 1-.06-2.59c0-.89.104-1.545.313-1.964.21-.418.553-.628 1.03-.628.198 0 .405.057.62.168l.1-.065c0-.427.022-.752.065-.974a3.153 3.153 0 0 0-.49-.064zm22.793.064c1.266 3.08 2.01 5.097 2.233 6.055a2.03 2.03 0 0 1 .37-.025c.163 0 .283.008.36.025.29-1.197.83-2.74 1.617-4.63.967 2.557 1.493 4.1 1.58 4.63.127-.025.25-.04.37-.04a2 2 0 0 1 .384.04c.258-.958 1.07-2.975 2.44-6.054-.172.018-.3.026-.386.026-.077 0-.21-.008-.398-.025-.736 2.19-1.328 3.75-1.782 4.682-.504-1.017-1.04-2.577-1.605-4.68a1.928 1.928 0 0 1-.757 0c-.504 1.76-1.066 3.324-1.682 4.692-.82-2.13-1.352-3.693-1.6-4.693-.17.035-.364.05-.578.05-.206 0-.394-.015-.565-.05zm-18.62.268c1.308 0 1.962.946 1.962 2.836 0 1.788-.65 2.682-1.95 2.682s-1.95-.924-1.95-2.772c0-1.83.645-2.746 1.936-2.746zm16.58 2.606v1.654a.75.75 0 0 1-.22.55c-.376.377-.804.565-1.283.565-.76 0-1.14-.404-1.14-1.217 0-.48.21-.827.63-1.04.332-.172 1.003-.34 2.012-.512zm26.228 0v1.654a.746.746 0 0 1-.22.55c-.375.377-.803.565-1.282.565-.76 0-1.14-.404-1.14-1.217 0-.48.21-.827.628-1.04.335-.172 1.006-.34 2.015-.512z" fill-rule="evenodd"/></svg>