<svg xmlns="http://www.w3.org/2000/svg" height="92.903" viewBox="0 0 64 92.903" width="64"><path d="M61.977.08v61.984H0l1.266 1.264h61.976V1.344L61.977.08zM13.59 6.404v.074c1.769.745 2.28 2.878.933 4.235h38.209v-.176L13.59 6.404zm.933 4.309c-1.484 1.057-3.263.592-3.925-1.262h-.09l3.842 47.553h.173v-46.29zm18.668 4.346l.002 2.699c.462-.246.837-.462 1.332-.604.331-.093.688-.195 1.037-.16.511.053.702.394.645.752.451-.242 1.301-.374 1.709-.002.391.358.471.942.34 1.43-.455-.488-1.041-.612-1.66-.309a2.294 2.294 0 0 0-1.063 1.096c.202.229.845.046 1.067-.068.244-.126.458-.331.73-.627-.035.441-.088.852-.248 1.068-.303.415-.606.498-1.123.678-.403.14-.812.336-1.211.742-.346.459-.433 1.254-.326 1.93.115.743.388 1.528.619 2.296.23.77.42 1.526.363 2.221 1.186.19 3.091-1.128 3.76-1.668.74-.598 1.5-1.295 1.867-1.971.3-.55.389-1.674-.174-2.548-1.065-1.657-.484-4.333 1.772-5.014 1.382-.403 3.284-.014 4.139 1.527.832 1.503 1.025 3.196 1 4.969-.039 2.718-.148 4.408.357 6.436a6.502 6.502 0 0 0 1.447 2.752c-.578.684-1.544.213-2.285-.42-1.1-.938-2.037-3.057-2.642-6.463l-.116.422c-.027 2.051.24 3.618.684 5.451.449 1.854 1.101 2.931 2.689 4.144-.872.788-1.752.451-2.521-.136-1.528-1.163-2.188-2.486-2.813-5.159l-.115.149c-.133 1.568.032 3.122.535 4.529.48 1.349 1.411 2.639 2.61 3.619-.815.735-1.702.251-2.442-.285-1.044-.756-2.6-2.218-3.099-5.086l-.131.113c-.053 1.64.101 3.116.455 4.385.362 1.294 1.458 2.835 2.562 3.574-.919.779-1.749.301-2.422-.216-1.785-1.374-2.909-3.316-3.32-5.895l-.16.082c-.191 2.8-.179 5.874 2.33 7.666l-.994.629.582.988c.257.438 2.577-.753 3.521 0 .381.305.626.792.352 1.409l-.057-.024c-.026-.437-.245-.665-.535-.785-.42-.175-1.063-.128-1.545.422-.93.63-1.588.183-2.068.814-.286.373-.28.702-.16 1.071l-.047.029c-1.284-.673-.085-1.916-.322-2.332l-.625-1.096-1.006.608c-.091-.735-1.235-4.641-1.926-4.905-.181.258-.171.942-.197 1.412-.036.659.264 1.14.197 2.059-.028.401-.228.951-.549 1.502.316.206.46.529.451.906-.009.423-.198.912-.328 1.311-.169.514-.315.902-.123.902.553-.287 1.069-.338 1.514-.209.642.184 1.051.799 1.633 1.098.67.346 1.241.286 2.009.578-1.047.401-1.198 1.472-2.621 1.252-.857-.134-2.141-1.753-2.375-1.619-.163.48-.057 1.039.034 1.795.045.376.088.803.093 1.293.004.489-.03 1.04-.136 1.67-.145.84-.45 1.917-.942 3.068h.016c19.215-6.424 19.354-33.325 19.515-41.945H33.191zm.002 2.699c-.462-.246-.836-.462-1.332-.604-.331-.093-.689-.195-1.039-.16-.511.053-.698.395-.642.752-.451-.242-1.3-.374-1.709-.002-.391.358-.472.942-.342 1.43.456-.488 1.04-.612 1.66-.309.465.228.85.627 1.063 1.096-.2.229-.847.046-1.067-.068-.244-.126-.457-.331-.73-.627.034.441.088.852.248 1.068.305.415.605.499 1.123.678.403.141.813.336 1.213.742.346.459.432 1.253.326 1.93-.116.742-.391 1.526-.621 2.295-.231.769-.418 1.528-.364 2.222-1.184.191-3.089-1.128-3.757-1.668-.741-.598-1.501-1.296-1.869-1.972-.298-.55-.386-1.673.177-2.547 1.063-1.658.482-4.333-1.773-5.014-1.384-.403-3.287-.014-4.141 1.527-.833 1.503-1.023 3.195-.998 4.969.04 2.718.146 4.408-.359 6.436a6.505 6.505 0 0 1-1.446 2.752c.577.684 1.543.214 2.286-.42 1.099-.938 2.036-3.057 2.64-6.463l.117.422c.027 2.051-.24 3.618-.683 5.451-.448 1.854-1.103 2.931-2.69 4.144.872.788 1.754.45 2.522-.136 1.53-1.164 2.185-2.486 2.81-5.159l.116.149c.133 1.568-.032 3.122-.534 4.529-.481 1.349-1.412 2.639-2.611 3.619.815.735 1.703.251 2.442-.285 1.044-.756 2.6-2.217 3.099-5.086l.131.113c.053 1.64-.099 3.115-.453 4.383-.36 1.295-1.459 2.837-2.563 3.576.918.779 1.749.301 2.42-.216 1.787-1.373 2.912-3.315 3.321-5.895l.16.082c.192 2.801.18 5.874-2.33 7.666l.996.627-.582.99c-.257.437-2.58-.753-3.524 0-.38.304-.624.791-.349 1.409l.056-.024c.024-.437.246-.667.535-.787.421-.174 1.062-.126 1.543.424.933.629 1.588.182 2.071.812.285.375.279.704.158 1.073l.047.029c1.285-.673.085-1.916.322-2.332l.625-1.096 1.006.608c.092-.735 1.236-4.64 1.928-4.905.18.258.17.942.197 1.412.036.659-.265 1.14-.199 2.059.028.401.229.952.549 1.502-.315.207-.459.529-.452.906.009.422.2.912.33 1.311.17.513.316.902.122.902-.551-.287-1.066-.337-1.512-.209-.643.185-1.052.799-1.633 1.098-.671.346-1.243.286-2.01.578 1.046.401 1.197 1.472 2.621 1.252.856-.134 2.141-1.753 2.375-1.619.163.481.056 1.039-.035 1.795-.045.375-.09.803-.094 1.293-.004.489.032 1.04.139 1.67.143.838.439 1.92.928 3.068h.01l.007-23.49c-7.147-.452-10.614-6.05-10.757-13.248h.119c.53 5.336 4.852 11.044 10.638 11.23l.004-13.738zm-2.248-.121c.38-.022.924.163 1.162.39.177.168.25.383.354.596-.015.039-.113-.048-.324-.111-.346-.105-.953.01-1.139-.217a1.531 1.531 0 0 0-.461-.363c.012-.197.18-.283.408-.295zm4.494 0c-.38-.022-.922.163-1.16.39-.177.168-.25.383-.355.596.013.039.113-.047.324-.109.345-.105.952.008 1.141-.219.129-.144.292-.283.461-.363-.012-.196-.182-.282-.411-.295zm-13.041.707c.395 0 .719.341.719.76 0 .417-.324.759-.719.759-.396 0-.716-.342-.716-.759 0-.419.32-.76.716-.76zm21.59 0c-.395 0-.718.343-.718.76s.323.759.718.759c.397 0 .717-.342.717-.759s-.32-.76-.717-.76zm-20.271 1.334c.395 0 .719.341.719.76 0 .418-.324.759-.719.759-.396 0-.717-.341-.717-.759 0-.419.321-.76.717-.76zm18.953.002c-.397 0-.721.339-.721.758 0 .418.324.759.721.759.394 0 .717-.341.717-.759 0-.419-.323-.758-.717-.758zm-21.389.218c.396 0 .719.341.719.758 0 .419-.323.758-.719.758s-.717-.339-.717-.758c0-.417.321-.758.717-.758zm23.823 0c-.397 0-.717.341-.717.758 0 .42.32.76.717.76.394 0 .718-.34.718-.76 0-.417-.324-.758-.718-.758zm-1.27.368c-.528 5.336-4.852 11.045-10.637 11.23v2.018c7.146-.451 10.613-6.049 10.756-13.248h-.119zM13.342 70.449c.034.47.051 1.308.051 2.514v3.361c0 1.924-.017 3.173-.051 3.746a3.52 3.52 0 0 1 .512-.039c.179 0 .364.014.552.039-.042-.932-.064-2.822-.064-5.67 0-1.847.022-3.164.064-3.951a8.46 8.46 0 0 1-.552.026c-.12 0-.29-.009-.512-.026zm22.289 0c.043 1.685.064 3.288.064 4.811 0 1.274-.021 2.877-.064 4.81.188-.042.359-.064.514-.064.162 0 .342.022.539.064a45.235 45.235 0 0 1-.039-1.502v-.91c0-1.18.086-1.938.257-2.271.291-.565.747-.846 1.371-.846.531 0 .907.168 1.129.506.223.338.334.876.334 1.611 0 .71-.021 1.847-.064 3.412.197-.042.373-.064.527-.064.163 0 .337.022.526.064-.035-1.146-.051-1.8-.051-1.963 0-.273.005-.631.017-1.072.013-.44.02-.742.02-.904 0-1.488-.685-2.233-2.053-2.233-.804 0-1.466.39-1.988 1.168a95.911 95.911 0 0 1-.025-1.757c0-.95.016-1.902.05-2.86a3.68 3.68 0 0 1-.525.051c-.103 0-.283-.017-.539-.051zm17.219 0c.042 1.36.064 2.963.064 4.811 0 1.556-.022 3.16-.064 4.81.196-.042.376-.064.539-.064.162 0 .342.022.539.064a35.43 35.43 0 0 1-.078-2.283v-.719c0-.119.043-.179.129-.179.239 0 1.141 1.06 2.707 3.181.196-.034.418-.052.666-.052.265 0 .505.018.718.052a469.521 469.521 0 0 0-3.013-3.529l1.154-1.09c.77-.727 1.326-1.206 1.668-1.437a4.28 4.28 0 0 1-.565.039c-.179 0-.367-.014-.564-.039-.642.812-1.236 1.472-1.783 1.976-.462.428-.762.641-.899.641-.145 0-.218-.072-.218-.217v-.437c0-1.6.026-3.441.078-5.528-.24.034-.42.051-.539.051-.12 0-.3-.017-.539-.051zm-35.895.692a.643.643 0 0 0-.463 1.103.632.632 0 0 0 .463.194c.18 0 .333-.065.461-.194a.629.629 0 0 0 .193-.461c0-.179-.065-.333-.193-.457s-.281-.185-.461-.185zm33.318 0a.64.64 0 0 0-.461.185.613.613 0 0 0-.191.457c0 .18.063.333.191.461a.629.629 0 0 0 .461.194.63.63 0 0 0 .463-.194.624.624 0 0 0 .192-.461.61.61 0 0 0-.192-.457.642.642 0 0 0-.463-.185zm-47.457.115c-.274 0-.648.015-1.123.045s-.814.045-1.02.045c-.17 0-.38-.012-.628-.037.05 1.359.076 2.821.076 4.386 0 1.505-.025 2.964-.076 4.375.239-.042.454-.064.642-.064.12 0 .298.017.537.051a39.01 39.01 0 0 1-.064-2.168v-1.834c.274.017.6.025.976.025 1.155 0 2.036-.225 2.643-.674s.91-1.083.91-1.904c0-.71-.248-1.263-.744-1.656-.496-.394-1.205-.59-2.129-.59zm-.809.5c.864 0 1.492.142 1.885.424.394.282.592.762.592 1.437 0 1.334-.921 2-2.76 2-.128 0-.32-.008-.576-.025v-1.154c0-.839.022-1.719.064-2.643.283-.026.547-.039.795-.039zm18.523.476a3.537 3.537 0 0 1-1.027.321c.017.444.025.804.025 1.078v.422c-.273 0-.546-.014-.82-.039 0 .017.005.052.014.103v.104c0 .068-.01.178-.028.332.231-.026.455-.037.668-.037h.141v.435c0 .65-.01 1.363-.03 2.137a92.405 92.405 0 0 0-.035 1.351c0 .616.126 1.064.373 1.342.25.278.666.416 1.256.416.496 0 .963-.144 1.4-.435l-.09-.282c-.377.18-.675.27-.898.27-.393 0-.67-.127-.834-.379-.162-.252-.244-.665-.244-1.238 0-.419.01-.959.026-1.617.017-.659.025-1.112.025-1.36l.026-.64c.093-.009.25-.014.462-.014.325 0 .718.013 1.18.039v-.103c0-.154.014-.294.04-.422-.642.051-1.198.076-1.669.076v-.848c0-.128.014-.464.04-1.012zm5.127 1.655c-.889 0-1.604.288-2.142.865-.539.577-.809 1.345-.809 2.303 0 .923.282 1.676.842 2.257.56.582 1.287.874 2.185.874.787 0 1.515-.245 2.182-.733v-.152c0-.103.008-.266.025-.489-.58.573-1.239.86-1.974.86-1.437 0-2.156-.889-2.156-2.668v-.039h4.414c0-.034.003-.081.011-.141v-.14c0-.898-.225-1.59-.674-2.073-.448-.483-1.083-.724-1.904-.724zm20.002 0c-.855 0-1.526.414-2.014 1.244V74.9a2.855 2.855 0 0 1-.013-.232c0-.129.008-.346.025-.654a2.092 2.092 0 0 1-.5.052c-.188 0-.363-.018-.525-.052.034.607.051 1.578.051 2.912v.912c0 1.009-.017 1.753-.05 2.232.195-.042.37-.064.524-.064.163 0 .343.022.54.064a49.494 49.494 0 0 1-.04-2.4v-.576c0-.967.145-1.635.436-2.002.291-.368.69-.551 1.193-.551.975 0 1.463.633 1.463 1.898 0 1.523-.025 2.733-.076 3.631.197-.042.371-.064.525-.064s.33.022.526.064a50.495 50.495 0 0 1-.026-2.945c.01-.415.014-.73.014-.943 0-1.531-.685-2.295-2.053-2.295zm-36.779.011c-.872 0-1.598.294-2.175.879-.578.586-.866 1.342-.866 2.266 0 .932.285 1.688.854 2.269.569.582 1.298.874 2.187.874.881 0 1.607-.29 2.18-.868.572-.577.86-1.334.86-2.275 0-.932-.282-1.69-.847-2.272-.564-.581-1.295-.873-2.193-.873zm23.482 0c-.958 0-1.727.287-2.308.86-.582.573-.873 1.339-.873 2.297 0 .949.276 1.71.828 2.283.551.573 1.276.859 2.174.859.915 0 1.646-.213 2.193-.64a1.73 1.73 0 0 1-.012-.256c0-.077.01-.237.026-.477-.608.616-1.254.924-1.938.924-.675 0-1.217-.241-1.623-.725-.406-.483-.609-1.142-.609-1.98 0-.872.188-1.547.564-2.022.376-.474.903-.712 1.578-.712.804 0 1.387.403 1.746 1.207.095-.419.21-.787.346-1.104a4.48 4.48 0 0 0-2.092-.514zm28.81.014c-.805 0-1.495.24-2.068.719l-.025.68h.104c.401-.608.953-.911 1.654-.911.513 0 .878.137 1.096.411.218.273.328.696.328 1.269v.27c-.137.119-.407.223-.809.308l-1.424.281c-.992.214-1.488.77-1.488 1.668 0 1.052.591 1.579 1.771 1.579.727 0 1.363-.287 1.911-.86.076.496.312.744.705.744.24 0 .591-.068 1.052-.205l-.05-.258a1.477 1.477 0 0 1-.219.014c-.257 0-.423-.087-.5-.258-.043-.102-.065-.299-.065-.59l.051-2.552v-.155c0-.744-.158-1.288-.474-1.634-.317-.347-.833-.52-1.55-.52zm-44.743.102c.042 1.043.062 2.002.062 2.875 0 .949-.02 2.01-.062 3.181.196-.042.371-.064.525-.064.163 0 .337.022.525.064a89.678 89.678 0 0 1-.064-3.181c0-.864.022-1.823.064-2.875-.145.034-.32.052-.525.052-.188 0-.363-.018-.525-.052zm33.318 0c.043 1.043.064 2.002.064 2.875 0 .949-.02 2.01-.064 3.181.197-.042.372-.064.525-.064.163 0 .34.022.528.064a87.511 87.511 0 0 1-.065-3.181c0-.864.022-1.823.065-2.875a2.355 2.355 0 0 1-.528.052 2.56 2.56 0 0 1-.525-.052zm-40.88.269c1.308 0 1.962.946 1.962 2.836 0 1.787-.649 2.682-1.949 2.682s-1.951-.924-1.951-2.772c0-1.83.646-2.746 1.937-2.746zm16.74 0c.496 0 .887.179 1.173.533.287.355.43.85.43 1.483v.217h-3.375c.026-.676.205-1.224.54-1.643.333-.393.744-.59 1.231-.59zm36.628 2.606v1.654a.75.75 0 0 1-.218.551c-.377.376-.805.564-1.284.564-.76 0-1.14-.406-1.14-1.219 0-.478.21-.825.63-1.039.332-.171 1.003-.34 2.012-.511zm-32.484 6.265c.043.89.064 2.103.064 3.643v.334a9.179 9.179 0 0 1-.898.576v.668c.48-.385.773-.62.885-.705v1.859c0 1.172-.017 2.254-.05 3.246a3.547 3.547 0 0 1 1.063 0c-.042-.898-.064-2.814-.064-5.748.402-.265.71-.461.924-.589v-.68c-.282.248-.59.491-.924.73v-.14c0-1.215.022-2.279.064-3.194a8.411 8.411 0 0 1-.55.026c-.12 0-.292-.009-.514-.026zm23.201 0c.043 1.36.065 2.963.065 4.811 0 1.556-.022 3.16-.065 4.81.197-.042.377-.064.54-.064.162 0 .341.022.538.064a36.166 36.166 0 0 1-.078-2.283v-.719c0-.119.043-.179.13-.179.24 0 1.141 1.06 2.706 3.181a4.604 4.604 0 0 1 1.385 0 463.522 463.522 0 0 0-3.014-3.529l1.154-1.09c.77-.727 1.326-1.204 1.668-1.435a4.273 4.273 0 0 1-1.128 0c-.642.812-1.236 1.47-1.784 1.974-.462.428-.76.641-.898.641-.146 0-.219-.071-.219-.217v-.437c0-1.599.027-3.441.078-5.528-.239.034-.419.051-.539.051s-.299-.017-.539-.051zm-52.93.93a582.74 582.74 0 0 1 2.723 8.691c.17-.042.318-.064.445-.064.128 0 .276.022.446.064l2.38-7.113a118.79 118.79 0 0 1 2.34 7.125c.128-.042.281-.062.46-.062.16 0 .31.016.445.05 1.391-4.199 2.359-7.096 2.902-8.691a1.69 1.69 0 0 1-.434.051c-.144 0-.279-.017-.406-.051a89.577 89.577 0 0 1-2.215 7.355 161.996 161.996 0 0 1-2.443-7.355 1.624 1.624 0 0 1-.42.051 1.58 1.58 0 0 1-.408-.051 98.944 98.944 0 0 1-2.39 7.482 174.47 174.47 0 0 1-2.204-7.482c-.178.034-.38.051-.61.051-.228 0-.432-.017-.61-.051zm19.438 2.52c-.872 0-1.599.293-2.176.878-.577.586-.865 1.342-.865 2.266 0 .932.285 1.688.853 2.27.57.581 1.298.873 2.188.873.881 0 1.607-.29 2.18-.868.573-.577.86-1.334.86-2.275 0-.932-.282-1.69-.847-2.271-.564-.582-1.295-.873-2.193-.873zm7.043 0c-.958 0-1.727.286-2.309.859-.58.573-.873 1.339-.873 2.297 0 .949.277 1.71.828 2.283.552.573 1.276.859 2.174.859.915 0 1.648-.213 2.196-.64a1.66 1.66 0 0 1-.014-.256c0-.077.008-.237.025-.477-.607.616-1.253.924-1.937.924-.676 0-1.217-.241-1.623-.724-.407-.484-.61-1.143-.61-1.981 0-.872.19-1.547.565-2.021.376-.475.902-.711 1.578-.711.804 0 1.387.401 1.746 1.205.094-.419.21-.787.346-1.104a4.481 4.481 0 0 0-2.092-.513zm23.254 0c-.59 0-1.067.168-1.426.501-.359.334-.537.757-.537 1.27 0 .453.108.808.326 1.064.218.257.571.453 1.06.59l.59.168c.674.188 1.012.538 1.012 1.051 0 .359-.11.644-.334.854-.222.209-.525.314-.91.314-.624 0-1.147-.325-1.566-.975a6.942 6.942 0 0 1-.307.987c.436.308.987.463 1.654.463.676 0 1.224-.19 1.643-.571.42-.38.63-.861.63-1.443 0-.744-.413-1.237-1.234-1.477l-.87-.255c-.65-.189-.977-.548-.977-1.079 0-.316.102-.574.302-.775.202-.201.465-.303.79-.303.504 0 1 .283 1.488.848.051-.274.141-.543.27-.809-.454-.282-.989-.423-1.604-.423zm-14.795.013c-.804 0-1.494.24-2.067.719l-.025.68h.102c.402-.608.955-.911 1.656-.911.513 0 .878.137 1.096.411.218.273.328.696.328 1.269v.27c-.137.119-.407.223-.809.308l-1.424.282c-.992.213-1.488.77-1.488 1.667 0 1.052.59 1.579 1.77 1.579.727 0 1.364-.287 1.912-.86.076.496.312.744.705.744.24 0 .591-.068 1.052-.205l-.05-.258a1.477 1.477 0 0 1-.219.014c-.257 0-.423-.087-.5-.258-.043-.102-.064-.299-.064-.589l.05-2.553v-.155c0-.743-.158-1.288-.474-1.634-.317-.347-.833-.52-1.55-.52zm26.228 0c-.803 0-1.493.24-2.066.719l-.025.68h.101c.402-.608.955-.911 1.656-.911.514 0 .878.137 1.096.411.218.273.328.696.328 1.269v.27c-.137.119-.406.223-.808.308l-1.424.282c-.992.213-1.488.77-1.488 1.667 0 1.052.59 1.579 1.77 1.579.726 0 1.364-.287 1.911-.86.077.496.312.744.705.744.24 0 .591-.068 1.053-.205l-.05-.258a1.467 1.467 0 0 1-.22.014c-.256 0-.422-.087-.5-.258-.042-.102-.064-.299-.064-.589l.051-2.553v-.155c0-.743-.158-1.288-.475-1.634-.316-.347-.832-.52-1.55-.52zm-45.916.039c-.607 0-1.14.491-1.603 1.475 0-.531.027-1 .078-1.41-.163.034-.342.05-.539.05s-.382-.016-.553-.05c.043.461.065 1.081.065 1.859 0 1.779-.022 3.173-.065 4.182.171-.026.334-.039.488-.039.206 0 .39.018.551.052a41.849 41.849 0 0 1-.062-2.591c0-.89.105-1.544.314-1.963.21-.419.553-.629 1.031-.629.197 0 .404.057.618.168l.101-.065c0-.427.022-.752.065-.974a3.153 3.153 0 0 0-.489-.065zm22.793.065c1.266 3.079 2.01 5.096 2.233 6.054a2.03 2.03 0 0 1 .371-.025c.162 0 .282.008.36.025.29-1.197.83-2.74 1.616-4.63.967 2.557 1.493 4.1 1.58 4.63.127-.025.25-.039.37-.039.128 0 .256.014.384.039.257-.958 1.07-2.975 2.438-6.054a4.212 4.212 0 0 1-.385.025c-.077 0-.21-.008-.398-.025-.736 2.189-1.328 3.749-1.782 4.681-.504-1.017-1.04-2.577-1.605-4.681a1.928 1.928 0 0 1-.756 0c-.504 1.762-1.066 3.325-1.682 4.693-.82-2.129-1.353-3.693-1.6-4.693-.172.034-.365.05-.579.05-.206 0-.394-.016-.565-.05zm-18.62.267c1.308 0 1.962.946 1.962 2.836 0 1.788-.649 2.682-1.949 2.682s-1.95-.924-1.95-2.772c0-1.83.645-2.746 1.936-2.746zm16.58 2.606v1.654a.75.75 0 0 1-.219.551c-.377.376-.805.564-1.284.564-.76 0-1.14-.404-1.14-1.217 0-.479.21-.827.63-1.041.332-.171 1.003-.34 2.012-.511zm26.228 0v1.654a.746.746 0 0 1-.219.551c-.376.376-.804.564-1.283.564-.76 0-1.14-.404-1.14-1.217 0-.479.21-.827.628-1.041.334-.171 1.005-.34 2.014-.511z" fill-rule="evenodd"/></svg>