<svg xmlns="http://www.w3.org/2000/svg" width="311.301" height="50" viewBox="0 0 311.30099 50"><g fill="#fff"><g fill-rule="evenodd"><path d="M287.103 37.1h9.074V26.51h6.05V37.1h9.074V15.925a3.025 3.025 0 0 0-3.024-3.025h-18.15a3.025 3.025 0 0 0-3.023 3.026V37.1zm9.074-13.612v-7.562h6.05v7.562h-6.05zM78.39 20.68l13.254 4.824a3.026 3.026 0 0 1 1.87 2.796v5.774a3.025 3.025 0 0 1-3.023 3.025H69.318v-3.026H84.44V29.32l-13.253-4.824a3.027 3.027 0 0 1-1.87-2.796v-5.774a3.025 3.025 0 0 1 3.025-3.025h21.173v3.026H78.39v4.754zM217.532 26.512V37.1h9.075v-9.076A3.025 3.025 0 0 0 223.582 25a3.036 3.036 0 0 0 3.025-3.025v-6.05a3.025 3.025 0 0 0-3.025-3.024h-18.15a3.025 3.025 0 0 0-3.024 3.026V37.1h9.075V26.51h6.05zm-6.05-3.024h6.05v-7.562h-6.05v7.562zM135.863 37.1h9.074V15.925h6.05V37.1h9.074V15.925a3.025 3.025 0 0 0-3.024-3.025h-18.15a3.025 3.025 0 0 0-3.023 3.026V37.1zM172.16 37.1h21.174v-3.026H178.21v-7.562h10.198v-3.024H178.21v-7.562h15.124V12.9H172.16a3.025 3.025 0 0 0-3.025 3.026v18.148a3.036 3.036 0 0 0 3.025 3.025M268.954 37.1h9.074V12.9h-6.05a3.025 3.025 0 0 0-3.024 3.026V37.1zM247.78 26.512h3.025v7.562h-6.05V15.926h15.124V12.9h-21.175a3.025 3.025 0 0 0-3.024 3.026v18.148a3.025 3.025 0 0 0 3.026 3.025h18.15a3.025 3.025 0 0 0 3.023-3.026v-7.562a3.025 3.025 0 0 0-3.025-3.024h-9.075v3.024zM102.59 12.9h9.074V23.49h6.05V12.9h9.074V23.49a3.025 3.025 0 0 1-3.025 3.024h-4.537V37.1h-9.074V26.51h-4.537a3.025 3.025 0 0 1-3.025-3.024V12.9z"/></g><path d="M25.655 0c-1.247 0-2.776.085-3.973.26 9.96 3.747 17.446 13.484 17.446 24.745 0 7.433-6.04 13.475-13.473 13.475-3.607 0-6.764-1.513-9.13-3.867a12.898 12.898 0 0 1-1.77-1.908c2.605 8.028 9.102 14.288 17.31 16.462 10.363-2.745 18.097-11.963 18.57-23.078.002-.002 0-.003 0-.004.005-.084.004-.17.007-.255.008-.274.017-.548.017-.825C50.66 11.19 39.47 0 25.654 0zM37.81 23.907c.015.36.023.723.023 1.088a13.035 13.035 0 0 1 0 .01c0-.368-.008-.734-.023-1.098z" fill-rule="evenodd" stroke-width="1.432"/><path d="M18.593.832C7.896 3.666 0 13.398 0 24.994 0 38.81 11.19 50 25.006 50c1.34 0 2.645-.14 3.928-.343-10.128-3.66-17.403-13.282-17.403-24.663 0-7.433 6.043-13.475 13.476-13.475 4.478 0 8.423 2.215 10.874 5.584C33.236 9.16 26.742 2.99 18.593.832z" fill-rule="evenodd" stroke="none" stroke-width="1.146"/></g></svg>