<svg xmlns="http://www.w3.org/2000/svg" width="1052.362" height="744.094" viewBox="0 0 1052.3623 744.09448"><g fill="#fff"><g fill-rule="evenodd"><path d="M932.6 409.393h28.008v-32.677h18.673v32.677h28.01v-65.355c0-5.155-4.18-9.336-9.336-9.336H941.937c-5.156 0-9.337 4.18-9.337 9.336v65.355zm28.008-42.014v-23.342h18.673v23.34H960.61zM288.39 358.714l40.904 14.888c3.39 1.4 5.777 4.737 5.777 8.63v17.824c0 5.156-4.18 9.337-9.335 9.337H260.38v-9.337h46.682v-14.674l-40.91-14.89c-3.386-1.403-5.772-4.74-5.772-8.63v-17.824c0-5.155 4.18-9.336 9.337-9.336h65.353v9.336h-46.68v14.676zM717.863 376.716v32.677h28.01v-28.01a9.337 9.337 0 0 0-9.338-9.337c5.13 0 9.337-4.206 9.337-9.336v-18.672a9.337 9.337 0 0 0-9.337-9.336h-56.018a9.337 9.337 0 0 0-9.336 9.336v65.355h28.01v-32.677h18.673zm-18.673-9.337h18.673v-23.342H699.19v23.34zM465.78 409.393h28.01v-65.355h18.673v65.355h28.01v-65.355a9.337 9.337 0 0 0-9.338-9.336h-56.018a9.337 9.337 0 0 0-9.336 9.336v65.355zM577.817 409.393h65.355v-9.337H596.49v-23.34h31.476v-9.337H596.49v-23.342h46.682v-9.336h-65.355a9.337 9.337 0 0 0-9.336 9.336v56.018c0 5.13 4.206 9.337 9.337 9.337M876.58 409.393h28.01v-74.69h-18.673a9.337 9.337 0 0 0-9.336 9.335v65.355zM811.226 376.716h9.337v23.34H801.89v-56.018h46.682v-9.336h-65.355a9.337 9.337 0 0 0-9.336 9.336v56.018c0 5.156 4.182 9.337 9.337 9.337h56.02c5.154 0 9.335-4.18 9.335-9.337v-23.34c0-5.156-4.18-9.337-9.336-9.337h-28.01v9.336zM363.08 334.702h28.01v32.677h18.672V334.7h28.01v32.677c0 5.155-4.18 9.336-9.337 9.336H414.43v32.677h-28.008v-32.677h-14.005c-5.156 0-9.337-4.18-9.337-9.337V334.7z"/></g><path d="M125.612 294.883c-3.847 0-8.568.26-12.262.804 30.744 11.565 53.85 41.617 53.85 76.375 0 22.943-18.645 41.594-41.588 41.594-11.133 0-20.876-4.672-28.178-11.938a39.812 39.812 0 0 1-5.46-5.888c8.036 24.78 28.09 44.1 53.43 50.812 31.982-8.472 55.853-36.926 57.317-71.232v-.01c.012-.26.008-.526.017-.787.028-.848.055-1.696.055-2.55 0-42.644-34.537-77.18-77.18-77.18zm37.518 73.79c.046 1.114.072 2.233.072 3.358a40.235 40.235 0 0 1 .002.032 78.56 78.56 0 0 0-.074-3.388z" fill-rule="evenodd" stroke-width="1.432"/><path d="M103.815 297.45c-33.018 8.747-57.39 38.788-57.39 74.58 0 42.643 34.542 77.183 77.185 77.183 4.14 0 8.163-.432 12.123-1.06-31.258-11.296-53.715-40.997-53.715-76.124 0-22.943 18.648-41.593 41.592-41.593 13.822 0 25.998 6.84 33.564 17.24-8.16-24.518-28.206-43.562-53.36-50.226z" fill-rule="evenodd" stroke="none" stroke-width="1.146"/></g></svg>