<?xml version="1.0" encoding="UTF-8" standalone="no"?>
<svg
   xmlns:dc="http://purl.org/dc/elements/1.1/"
   xmlns:cc="http://creativecommons.org/ns#"
   xmlns:rdf="http://www.w3.org/1999/02/22-rdf-syntax-ns#"
   xmlns:svg="http://www.w3.org/2000/svg"
   xmlns="http://www.w3.org/2000/svg"
   xmlns:sodipodi="http://sodipodi.sourceforge.net/DTD/sodipodi-0.dtd"
   xmlns:inkscape="http://www.inkscape.org/namespaces/inkscape"
   viewBox="0 0 64 92.903"
   height="92.903"
   width="64"
   xml:space="preserve"
   version="1.1"
   id="svg2"
   inkscape:version="0.91 r"
   sodipodi:docname="pwr.svg"><sodipodi:namedview
     pagecolor="#ffffff"
     bordercolor="#666666"
     borderopacity="1"
     objecttolerance="10"
     gridtolerance="10"
     guidetolerance="10"
     inkscape:pageopacity="0"
     inkscape:pageshadow="2"
     inkscape:window-width="1366"
     inkscape:window-height="717"
     id="namedview11"
     showgrid="false"
     inkscape:snap-page="true"
     inkscape:zoom="3.592504"
     inkscape:cx="27.049815"
     inkscape:cy="57.15475"
     inkscape:window-x="0"
     inkscape:window-y="25"
     inkscape:window-maximized="1"
     inkscape:current-layer="svg2" /><metadata
     id="metadata8"><rdf:RDF><cc:Work
         rdf:about=""><dc:format>image/svg+xml</dc:format><dc:type
           rdf:resource="http://purl.org/dc/dcmitype/StillImage" /><dc:title></dc:title></cc:Work></rdf:RDF></metadata><defs
     id="defs6" /><path
     d="m 52.732911,10.537807 0,0.174772 -38.208527,0 C 15.87104,9.3561048 15.359132,7.2241098 13.590114,6.4793018 l 0,-0.07502 39.142797,4.1335202 z m -38.208527,46.466531 -0.175637,0 -3.841157,-47.5538162 0.09041,0 c 0.662645,1.8538512 2.441953,2.3192572 3.926384,1.2620572 l 0,46.291759 z M 35.85015,17.932316 c -0.168961,0.08083 -0.332187,0.218211 -0.461087,0.361643 -0.188598,0.227322 -0.795394,0.113975 -1.140462,0.219075 -0.211535,0.06252 -0.310429,0.15003 -0.324018,0.110676 0.104864,-0.213341 0.177915,-0.428646 0.355595,-0.596271 0.380337,-0.364313 1.539024,-0.61795 1.569972,-0.09512 z M 52.732911,15.058262 C 52.571959,23.67901 52.431436,50.580153 33.2163,57.004338 l -0.01445,0 c 0.492035,-1.150674 0.795315,-2.227512 0.940082,-3.067993 0.106671,-0.629968 0.142018,-1.182173 0.138248,-1.671301 -0.0048,-0.489444 -0.04917,-0.916047 -0.09418,-1.292143 -0.09104,-0.755726 -0.196374,-1.314607 -0.03338,-1.794624 0.233527,-0.134006 1.517893,1.484667 2.375106,1.61828 1.422535,0.220254 1.573507,-0.850772 2.620967,-1.252003 -0.768216,-0.291891 -1.340215,-0.230936 -2.010872,-0.577576 -0.581585,-0.299274 -0.9902,-0.913611 -1.632815,-1.097732 -0.444827,-0.128664 -0.959877,-0.07839 -1.512474,0.208865 -0.192368,0 -0.0461,-0.388978 0.122852,-0.903087 0.129842,-0.398404 0.318676,-0.888004 0.328259,-1.310365 0.0084,-0.37696 -0.135184,-0.699642 -0.451111,-0.905364 0.320797,-0.551104 0.520784,-1.101266 0.548827,-1.502733 0.067,-0.918954 -0.234471,-1.40007 -0.198574,-2.058945 0.02623,-0.470512 0.01642,-1.153816 0.19771,-1.411458 0.690922,0.264083 1.836256,4.170673 1.926666,4.905034 l 1.00575,-0.607189 0.625491,1.094118 c 0.237063,0.416156 -0.963255,1.660148 0.320562,2.332611 l 0.04839,-0.02961 c -0.12026,-0.368713 -0.127172,-0.697128 0.159142,-1.070161 0.48033,-0.631461 1.138734,-0.183649 2.069469,-0.813304 0.481353,-0.55024 1.12436,-0.597684 1.544363,-0.422833 0.289458,0.119946 0.509397,0.34884 0.535709,0.785968 l 0.05693,0.02356 c 0.274377,-0.616536 0.02872,-1.104801 -0.351978,-1.408945 -0.944324,-0.753056 -3.26641,0.437521 -3.522953,0 l -0.58159,-0.988626 0.995303,-0.627926 C 36.862791,41.366191 36.850773,38.293093 37.04157,35.493111 l 0.16032,-0.08287 c 0.411286,2.579336 1.535253,4.520927 3.320531,5.894289 0.672463,0.517485 1.501633,0.994832 2.420822,0.216012 -1.104643,-0.739225 -2.20151,-2.280527 -2.56331,-3.574162 -0.353552,-1.269127 -0.506096,-2.744289 -0.453782,-4.384171 l 0.131178,-0.112876 c 0.499184,2.867377 2.055332,4.329187 3.099647,5.085306 0.739467,0.535945 1.627002,1.021617 2.441481,0.286549 -1.199058,-0.980535 -2.130186,-2.269771 -2.610281,-3.619097 -0.50319,-1.406982 -0.667283,-2.961637 -0.534377,-4.529567 l 0.114683,-0.149873 c 0.625022,2.672416 1.283659,3.995193 2.811531,5.1582 0.769077,0.587158 1.650561,0.925158 2.522934,0.137776 C 46.314516,34.605113 45.661453,33.52749 45.212546,31.673796 44.768583,29.841311 44.50206,28.27338 44.529239,26.222449 l 0.115782,-0.420869 c 0.60499,3.405835 1.542168,5.524634 2.642725,6.462517 0.740566,0.633503 1.707123,1.103465 2.284935,0.418591 -0.735621,-0.840795 -1.200793,-1.758099 -1.447752,-2.750967 -0.504761,-2.027523 -0.39699,-3.718227 -0.358187,-6.436203 0.02551,-1.77263 -0.165658,-3.466397 -0.998209,-4.969131 -0.85415,-1.541695 -2.757012,-1.929102 -4.139487,-1.525906 -2.256025,0.681104 -2.837136,3.356428 -1.772159,5.013433 0.562651,0.874416 0.474911,1.997519 0.174772,2.548151 -0.367376,0.675999 -1.128444,1.372264 -1.868146,1.970263 -0.668615,0.540185 -2.573444,1.859663 -3.759387,1.669573 0.05632,-0.694694 -0.132907,-1.452463 -0.362665,-2.22217 -0.230936,-0.768845 -0.504994,-1.552142 -0.620541,-2.295222 -0.106436,-0.675763 -0.01784,-1.471786 0.327709,-1.930908 0.399032,-0.405866 0.806941,-0.601141 1.210136,-0.741902 0.516857,-0.179408 0.820765,-0.263377 1.124046,-0.678198 0.159848,-0.216404 0.212398,-0.626119 0.247353,-1.067647 -0.271861,0.29676 -0.486538,0.500519 -0.730512,0.626119 -0.22206,0.114919 -0.864596,0.298567 -1.06592,0.06905 0.211535,-0.468312 0.597607,-0.867737 1.061914,-1.095061 0.619364,-0.303044 1.20503,-0.178621 1.659911,0.308779 0.131571,-0.4874 0.05051,-1.073224 -0.340434,-1.430782 -0.407908,-0.372483 -1.257816,-0.238948 -1.708534,0.0031 0.05656,-0.357636 -0.13267,-0.699642 -0.643243,-0.752428 -0.349781,-0.03519 -0.707183,0.06591 -1.038034,0.158985 -0.495885,0.141861 -0.87041,0.358265 -1.331731,0.603654 l -0.0024,-2.69928 19.541743,0 z m -8.745407,4.805198 c 0.396361,0 0.718334,-0.34177 0.718334,-0.759732 0,-0.416785 -0.321973,-0.759262 -0.718334,-0.759262 -0.395658,0 -0.71873,0.342477 -0.71873,0.759262 0,0.417962 0.323073,0.759732 0.71873,0.759732 z m -1.318145,1.333538 c 0.394558,0 0.718101,-0.340042 0.718101,-0.758869 0,-0.418355 -0.323543,-0.759261 -0.718101,-0.759261 -0.39699,0 -0.719434,0.340906 -0.719434,0.759261 0,0.418827 0.322444,0.758869 0.719434,0.758869 z m 2.43504,0.218211 c 0.394948,0 0.717868,-0.339806 0.717868,-0.759104 0,-0.417257 -0.32292,-0.757691 -0.717868,-0.757691 -0.396362,0 -0.717863,0.340434 -0.717863,0.757691 0,0.419298 0.321501,0.759104 0.717863,0.759104 z m -1.150753,-1.149182 c -0.14296,7.199313 -3.610219,12.79582 -10.75604,13.246774 l -7.54e-4,-2.016448 c 5.78424,-0.185221 10.110286,-5.893818 10.637826,-11.230326 l 0.11908,0 z M 30.536578,17.932316 c 0.169432,0.08083 0.332422,0.218211 0.461558,0.361643 0.185692,0.227322 0.792959,0.113975 1.138499,0.218604 0.21177,0.06299 0.31035,0.150501 0.324882,0.111147 -0.104236,-0.213341 -0.178859,-0.428646 -0.354967,-0.596271 -0.382065,-0.364313 -1.539023,-0.618343 -1.569972,-0.09512 z m 2.645239,39.072022 -0.01029,0 c -0.489368,-1.148003 -0.783772,-2.229475 -0.926496,-3.067993 -0.107535,-0.629968 -0.143118,-1.182173 -0.138719,-1.671301 0.004,-0.489444 0.04815,-0.916518 0.09379,-1.292143 0.09057,-0.755726 0.196374,-1.314607 0.03338,-1.795488 -0.234707,-0.133848 -1.51813,1.485531 -2.374242,1.619144 -1.424342,0.220254 -1.575786,-0.850772 -2.621596,-1.252003 0.767038,-0.291891 1.339743,-0.230936 2.011265,-0.577576 0.580953,-0.299274 0.988626,-0.913846 1.631476,-1.098596 0.44577,-0.1278 0.962077,-0.07753 1.512553,0.209729 0.194096,0 0.04697,-0.389843 -0.122066,-0.903087 -0.130471,-0.398404 -0.320405,-0.888867 -0.329281,-1.310365 -0.0079,-0.37696 0.136284,-0.699642 0.451347,-0.906228 -0.319776,-0.55024 -0.521256,-1.101109 -0.549141,-1.501869 -0.06614,-0.918954 0.236042,-1.40007 0.199752,-2.058945 -0.02694,-0.470512 -0.01783,-1.153816 -0.197711,-1.411852 -0.691632,0.264477 -1.835864,4.171067 -1.927847,4.905428 l -1.005515,-0.607189 -0.625019,1.094118 c -0.237534,0.416156 0.962783,1.660148 -0.322132,2.332611 l -0.04658,-0.02962 c 0.121123,-0.368712 0.1267,-0.697129 -0.158042,-1.071654 -0.482766,-0.630596 -1.13897,-0.182392 -2.071433,-0.811811 -0.481588,-0.55024 -1.123574,-0.597684 -1.543738,-0.423775 -0.28969,0.120024 -0.510964,0.349782 -0.534843,0.786911 l -0.05656,0.02356 c -0.274688,-0.6174 -0.02961,-1.105272 0.350253,-1.408945 0.944089,-0.753056 3.267116,0.436422 3.523817,0 l 0.581188,-0.989491 -0.996166,-0.627061 c 2.510447,-1.792661 2.522701,-4.86576 2.330098,-7.666448 l -0.160557,-0.08232 c -0.409007,2.579492 -1.532739,4.521083 -3.319352,5.89421 -0.670892,0.51772 -1.502577,0.995067 -2.42035,0.216247 1.103465,-0.739231 2.20214,-2.280533 2.562369,-3.574796 0.354258,-1.268498 0.507195,-2.743897 0.453781,-4.383543 l -0.130471,-0.113819 c -0.49879,2.868321 -2.056037,4.33013 -3.100513,5.086249 -0.738366,0.535945 -1.625899,1.021617 -2.44038,0.28655 1.199217,-0.980536 2.129323,-2.269772 2.610676,-3.619098 0.501855,-1.406982 0.66618,-2.961637 0.532803,-4.529567 l -0.114604,-0.149873 c -0.62502,2.672417 -1.281931,3.994565 -2.811764,5.1582 -0.767745,0.586452 -1.649072,0.925158 -2.520581,0.137776 1.58694,-1.213514 2.241101,-2.291137 2.688677,-4.14483 0.443335,-1.832486 0.710717,-3.400416 0.683775,-5.451819 l -0.116882,-0.420398 c -0.60389,3.405835 -1.541695,5.524477 -2.640998,6.461811 -0.742373,0.63421 -1.708062,1.104172 -2.28446,0.419298 0.734754,-0.841661 1.199218,-1.758099 1.445942,-2.750967 0.505625,-2.027524 0.397227,-3.718228 0.357795,-6.436203 -0.02514,-1.77373 0.166996,-3.466398 0.99978,-4.969132 0.854306,-1.541694 2.755601,-1.929101 4.139254,-1.525905 2.255318,0.681104 2.835565,3.355485 1.773023,5.013433 -0.562888,0.874415 -0.474912,1.997517 -0.177051,2.547208 0.368084,0.676942 1.128052,1.373206 1.868618,1.971205 0.668615,0.540185 2.574858,1.859663 3.759152,1.669102 -0.05452,-0.694222 0.132042,-1.452227 0.362978,-2.22217 0.230386,-0.768374 0.50476,-1.552378 0.620778,-2.294751 0.106199,-0.676863 0.01933,-1.471785 -0.326689,-1.931144 -0.400132,-0.40563 -0.80804,-0.600905 -1.211471,-0.741901 -0.517721,-0.179172 -0.819195,-0.263142 -1.123968,-0.677962 -0.159454,-0.216405 -0.213576,-0.62612 -0.247666,-1.067648 0.27343,0.296761 0.486536,0.500519 0.731061,0.62612 0.219468,0.114446 0.866325,0.297938 1.066312,0.06904 -0.212633,-0.468705 -0.598312,-0.867738 -1.062776,-1.09506 -0.619914,-0.303045 -1.203931,-0.178623 -1.660383,0.308778 -0.129607,-0.487401 -0.04964,-1.073224 0.340905,-1.430782 0.409008,-0.372482 1.258052,-0.238948 1.708927,0.0031 -0.05616,-0.357401 0.13267,-0.699406 0.643715,-0.752191 0.349546,-0.03519 0.706711,0.06591 1.038269,0.158984 0.495648,0.141861 0.870331,0.358265 1.332596,0.603655 l -0.01178,39.246798 z M 22.398753,19.86346 c -0.396754,0 -0.718022,-0.34177 -0.718022,-0.759732 0,-0.418357 0.321268,-0.759733 0.718022,-0.759733 0.394791,0 0.717709,0.341376 0.717709,0.759733 0,0.417962 -0.322917,0.759732 -0.717708,0.759732 z m 1.318614,1.333538 c -0.39589,0 -0.71763,-0.340042 -0.71763,-0.758869 0,-0.418355 0.32174,-0.759496 0.71763,-0.759496 0.395498,0 0.718807,0.341141 0.718807,0.759496 0,0.418827 -0.323309,0.758869 -0.718807,0.758869 z m -2.435432,0.217975 c -0.395891,0 -0.718102,-0.340041 -0.718102,-0.758868 0,-0.417257 0.322211,-0.757691 0.718102,-0.757691 0.395655,0 0.718101,0.340434 0.718101,0.757691 0,0.418827 -0.322446,0.758868 -0.718101,0.758868 z m 1.150045,-1.148946 c 0.143588,7.197978 3.61085,12.795427 10.758085,13.246774 l 0,-2.016684 C 27.403938,31.310425 23.079936,25.602535 22.550197,20.266027 l -0.118217,0 z m 39.544732,-20.18593118 1.264889,1.26425698 0,61.9844122 -61.9766371,0 L -2e-8,62.064508 l 61.97671202,0 0,-61.98441218 z M 5.6894311,73.5015 c 0,0.82092 -0.303437,1.456 -0.9106267,1.90483 -0.607189,0.44915 -1.4882807,0.67356 -2.6428031,0.67356 -0.3762536,0 -0.7011345,-0.008 -0.9750371,-0.0256 l 0,1.83453 c 0,0.67553 0.021365,1.39826 0.064411,2.16782 -0.23965498,-0.034 -0.41929868,-0.0512 -0.53885138,-0.0512 -0.188205,0 -0.4021743,0.0213 -0.64151453,0.0641 0.0512144,-1.41123 0.0770572,-2.86919 0.0770572,-4.37436 0,-1.5651 -0.025846,-3.02754 -0.0770572,-4.38732 0.24805993,0.0256 0.45755183,0.0382 0.62855453,0.0382 0.2053282,0 0.54529178,-0.0148 1.01981038,-0.0447 0.4746756,-0.0301 0.8489649,-0.045 1.1226313,-0.045 0.9235871,0 1.6334411,0.19684 2.1295602,0.59006 0.4958842,0.39345 0.7438658,0.94519 0.7438658,1.65504 z m -1.2058943,0.11531 c 0,-0.67553 -0.1966098,-1.15445 -0.5900651,-1.43683 -0.3934553,-0.28207 -1.0220099,-0.42322 -1.8857421,-0.42322 -0.2479813,0 -0.513165,0.0129 -0.7953154,0.0385 -0.042731,0.92359 -0.064096,1.80444 -0.064096,2.64256 l 0,1.15469 c 0.2564648,0.0171 0.4488329,0.0256 0.5771045,0.0256 1.8387693,0 2.7581147,-0.66713 2.7581147,-2.00128 z m 7.4370832,3.42524 c 0,0.94071 -0.286549,1.69973 -0.859491,2.27707 -0.572863,0.57719 -1.29984,0.86593 -2.1806962,0.86593 -0.8895749,0 -1.6185156,-0.29079 -2.187451,-0.87237 -0.5686997,-0.58158 -0.8529709,-1.33841 -0.8529709,-2.27063 0,-0.92367 0.2885129,-1.67845 0.8659316,-2.26427 0.5773401,-0.58583 1.3021182,-0.87866 2.1744903,-0.87866 0.8979802,0 1.6291992,0.29086 2.1936572,0.87221 0.564379,0.58159 0.84653,1.33841 0.84653,2.27072 z m -1.090349,0.077 c 0,-1.89015 -0.65424,-2.83509 -1.9627989,-2.83509 -1.2914349,0 -1.9371132,0.9151 -1.9371132,2.74515 0,1.84741 0.6499196,2.77099 1.9500739,2.77099 1.2998402,0 1.9498382,-0.89374 1.9498382,-2.68106 z m 3.575425,2.95048 c -0.188127,-0.0256 -0.372011,-0.0385 -0.551497,-0.0385 -0.171239,0 -0.342242,0.0129 -0.513244,0.0385 0.03432,-0.57286 0.05146,-1.82157 0.05146,-3.74579 l 0,-3.36108 c 0,-1.20589 -0.01712,-2.04401 -0.05146,-2.51429 0.222453,0.017 0.393455,0.0256 0.513244,0.0256 0.128271,0 0.312156,-0.009 0.551497,-0.0256 -0.04273,0.78667 -0.0641,2.10372 -0.0641,3.95113 0,2.84782 0.02137,4.7378 0.0641,5.67003 z m 3.203412,-8.28715 c 0,0.17965 -0.0641,0.33352 -0.192368,0.4618 -0.128193,0.12843 -0.282071,0.1926 -0.461793,0.1926 -0.179408,0 -0.333522,-0.0642 -0.461794,-0.1926 -0.128272,-0.12828 -0.192368,-0.28215 -0.192368,-0.4618 0,-0.17949 0.0641,-0.33132 0.192368,-0.45534 0.128272,-0.12403 0.282386,-0.18593 0.461794,-0.18593 0.179722,0 0.3336,0.0619 0.461793,0.18593 0.128272,0.12402 0.192368,0.27585 0.192368,0.45534 z m -0.128193,8.28715 c -0.188204,-0.0428 -0.36337,-0.0641 -0.525968,-0.0641 -0.1538,0 -0.329281,0.0213 -0.52589,0.0641 0.04273,-1.17164 0.0641,-2.23215 0.0641,-3.18134 0,-0.87238 -0.02137,-1.83028 -0.0641,-2.87366 0.162519,0.0343 0.337763,0.0515 0.52589,0.0515 0.205328,0 0.380573,-0.0172 0.525968,-0.0515 -0.0428,1.05209 -0.06418,2.0097 -0.06418,2.87366 0,0.94919 0.02137,2.0097 0.06418,3.18134 z m 4.986649,-0.30791 c -0.436187,0.29079 -0.902222,0.43618 -1.398264,0.43618 -0.590064,0 -1.009127,-0.13895 -1.257187,-0.41687 -0.247982,-0.27806 -0.372011,-0.72493 -0.372011,-1.3406 0,-0.12827 0.01069,-0.57938 0.03205,-1.35333 0.02137,-0.77395 0.03205,-1.48601 0.03205,-2.136 l 0,-0.43618 -0.141154,0 c -0.213734,0 -0.436186,0.0129 -0.667122,0.0386 0.0172,-0.15387 0.02584,-0.26518 0.02584,-0.33359 0,-0.0256 0,-0.0598 0,-0.10259 -0.0086,-0.0512 -0.01288,-0.0855 -0.01288,-0.10267 0.273667,0.0256 0.547255,0.0386 0.820922,0.0386 l 0,-0.42323 c 0,-0.27367 -0.0085,-0.63303 -0.0256,-1.0777 0.401939,-0.0683 0.744102,-0.17524 1.026252,-0.32064 -0.02561,0.54733 -0.03849,0.8851 -0.03849,1.01329 l 0,0.84685 c 0.470434,0 1.026172,-0.0256 1.667688,-0.077 -0.02561,0.12827 -0.03849,0.26942 -0.03849,0.42331 l 0,0.10258 c -0.461794,-0.0256 -0.855249,-0.0382 -1.18013,-0.0382 -0.213734,0 -0.367849,0.004 -0.461794,0.0126 l -0.02585,0.64151 c 0,0.24806 -0.0085,0.70114 -0.0256,1.35978 -0.01712,0.6584 -0.02561,1.19725 -0.02561,1.61631 0,0.5731 0.0813,0.98573 0.243818,1.23795 0.162363,0.25229 0.440429,0.37853 0.833884,0.37853 0.222217,0 0.521648,-0.09 0.897979,-0.26943 l 0.08971,0.28215 z m 5.769159,-3.07876 c 0,0.0255 0,0.0726 0,0.14115 -0.0086,0.06 -0.01288,0.10691 -0.01288,0.14101 l -4.412921,0 0,0.0386 c 0,1.77884 0.718259,2.66841 2.155089,2.66841 0.735461,0 1.3941,-0.28663 1.975682,-0.85949 -0.01712,0.22222 -0.02585,0.38473 -0.02585,0.48741 l 0,0.15403 c -0.667045,0.4874 -1.393864,0.73122 -2.180697,0.73122 -0.897979,0 -1.626999,-0.2908 -2.187215,-0.87237 -0.560216,-0.58158 -0.840325,-1.33417 -0.840325,-2.25776 0,-0.95791 0.269426,-1.72542 0.808276,-2.30275 0.538851,-0.57735 1.252868,-0.86594 2.142207,-0.86594 0.821158,0 1.456233,0.24162 1.905066,0.72478 0.448911,0.48316 0.673563,1.17384 0.673563,2.07182 z m -1.026252,-0.16676 0,-0.21821 c 0,-0.6328 -0.143353,-1.12663 -0.429745,-1.4816 -0.286549,-0.35489 -0.677727,-0.53233 -1.173846,-0.53233 -0.487401,0 -0.89798,0.19684 -1.231502,0.59006 -0.333601,0.41898 -0.513244,0.96655 -0.538851,1.64208 l 3.373944,0 z m 7.244479,-2.10388 c -0.136912,0.31641 -0.252223,0.68417 -0.346404,1.10324 -0.359207,-0.80381 -0.940789,-1.2059 -1.744589,-1.2059 -0.675762,0 -1.201731,0.2373 -1.577983,0.71205 -0.376332,0.47468 -0.564459,1.14801 -0.564459,2.02046 0,0.83805 0.203051,1.49872 0.609467,1.98189 0.406102,0.48339 0.947152,0.72493 1.622679,0.72493 0.684246,0 1.330004,-0.30791 1.937193,-0.92382 -0.01712,0.23958 -0.0256,0.39769 -0.0256,0.47475 0,0.11979 0.004,0.20525 0.01265,0.25646 -0.547256,0.42778 -1.278474,0.64152 -2.193578,0.64152 -0.898059,0 -1.622758,-0.28654 -2.174334,-0.85949 -0.551733,-0.57287 -0.827599,-1.33416 -0.827599,-2.28336 0,-0.95791 0.290791,-1.72338 0.872373,-2.29632 0.581581,-0.5731 1.351289,-0.85949 2.309202,-0.85949 0.735462,0 1.432354,0.17108 2.090993,0.51308 z m 6.269443,5.65731 c -0.188126,-0.0428 -0.363606,-0.0641 -0.525891,-0.0641 -0.154115,0 -0.329358,0.0213 -0.526126,0.0641 0.04297,-1.5651 0.06433,-2.70243 0.06433,-3.41228 0,-0.73562 -0.111304,-1.27227 -0.333521,-1.61003 -0.222453,-0.33776 -0.598784,-0.5068 -1.128915,-0.5068 -0.624313,0 -1.081944,0.28239 -1.372735,0.84676 -0.171003,0.33361 -0.256464,1.09043 -0.256464,2.27071 l 0,0.91071 c 0,0.30791 0.01265,0.80828 0.03825,1.50093 -0.19661,-0.0428 -0.376252,-0.0641 -0.538614,-0.0641 -0.154037,0 -0.325039,0.0213 -0.513244,0.0641 0.0428,-1.93287 0.06418,-3.53631 0.06418,-4.81054 0,-1.52237 -0.02137,-3.12596 -0.06418,-4.81062 0.256543,0.0341 0.436264,0.0512 0.538851,0.0512 0.128272,0 0.303516,-0.0171 0.525969,-0.0512 -0.03433,0.95768 -0.05121,1.91135 -0.05121,2.86055 0,0.35064 0.0085,0.93647 0.0256,1.7577 0.521651,-0.77842 1.184296,-1.16748 1.988331,-1.16748 1.368256,0 2.052502,0.74394 2.052502,2.23222 0,0.16228 -0.0063,0.46376 -0.01917,0.90419 -0.01288,0.44042 -0.01933,0.7976 -0.01933,1.07126 0,0.16252 0.01712,0.81668 0.05137,1.96272 z m 7.000662,0 c -0.19677,-0.0428 -0.372011,-0.0641 -0.525894,-0.0641 -0.154114,0 -0.32928,0.0213 -0.526125,0.0641 0.05146,-0.89798 0.07706,-2.10812 0.07706,-3.63049 0,-1.26559 -0.48748,-1.89862 -1.462439,-1.89862 -0.504603,0 -0.902221,0.18396 -1.193012,0.55181 -0.290872,0.36761 -0.436265,1.03466 -0.436265,2.00121 l 0,0.57718 c 0,1.16316 0.01295,1.96272 0.03858,2.39891 -0.196613,-0.0428 -0.376335,-0.0641 -0.538851,-0.0641 -0.153882,0 -0.32928,0.0213 -0.525893,0.0641 0.03425,-0.47891 0.05134,-1.2231 0.05134,-2.23215 l 0,-0.9107 c 0,-1.33417 -0.01709,-2.30496 -0.05134,-2.91215 0.162522,0.0343 0.337764,0.0515 0.525893,0.0515 0.196846,0 0.363603,-0.0172 0.500279,-0.0515 -0.01709,0.30791 -0.02557,0.52589 -0.02557,0.6544 0,0.0512 0.0037,0.12827 0.01295,0.23086 0,0.10242 0,0.17948 0,0.23093 0.487404,-0.82964 1.158689,-1.24447 2.013938,-1.24447 1.368254,0 2.052503,0.76555 2.052503,2.29633 0,0.21374 -0.0037,0.52816 -0.01276,0.94299 -0.0087,0.41458 -0.01288,0.72045 -0.01288,0.91706 0,0.6328 0.01288,1.30864 0.03852,2.0269 z m 3.203413,-8.28715 c 0,0.17965 -0.0641,0.33352 -0.192372,0.4618 -0.128193,0.12843 -0.282069,0.1926 -0.46179,0.1926 -0.179407,0 -0.333522,-0.0642 -0.461797,-0.1926 -0.128268,-0.12828 -0.192364,-0.28215 -0.192364,-0.4618 0,-0.17949 0.0641,-0.33132 0.192364,-0.45534 0.128275,-0.12404 0.28239,-0.18594 0.461797,-0.18594 0.179721,0 0.333597,0.0619 0.46179,0.18594 0.128275,0.12402 0.192372,0.27585 0.192372,0.45534 z m -0.128194,8.28715 c -0.188205,-0.0428 -0.36337,-0.0641 -0.525968,-0.0641 -0.153801,0 -0.32928,0.0213 -0.525894,0.0641 0.04273,-1.17165 0.0641,-2.23215 0.0641,-3.18134 0,-0.87238 -0.02137,-1.83029 -0.0641,-2.87366 0.162523,0.0343 0.337764,0.0515 0.525894,0.0515 0.205329,0 0.38057,-0.0172 0.525968,-0.0515 -0.04279,1.05209 -0.06418,2.00969 -0.06418,2.87366 0,0.94919 0.02137,2.00969 0.06418,3.18134 z m 7.270087,0 c -0.213812,-0.0343 -0.453389,-0.0512 -0.71834,-0.0512 -0.24806,0 -0.470431,0.017 -0.667044,0.0512 -1.565099,-2.12108 -2.46732,-3.18134 -2.706897,-3.18134 -0.08554,0 -0.128275,0.0599 -0.128275,0.17948 l 0,0.7185 c 0,0.71826 0.02564,1.47956 0.07706,2.28336 -0.196846,-0.0428 -0.376335,-0.0641 -0.538851,-0.0641 -0.162522,0 -0.342005,0.0213 -0.53885,0.0641 0.04273,-1.65056 0.06417,-3.25415 0.06417,-4.81054 0,-1.84741 -0.02143,-3.45085 -0.06417,-4.81062 0.239576,0.0341 0.419059,0.0512 0.53885,0.0512 0.119785,0 0.299274,-0.0171 0.538851,-0.0512 -0.05146,2.0866 -0.07706,3.92977 -0.07706,5.52888 l 0,0.43619 c 0,0.14539 0.07282,0.21797 0.218212,0.21797 0.136675,0 0.43595,-0.21374 0.897979,-0.6412 0.547334,-0.5046 1.141566,-1.16324 1.783078,-1.97568 0.196613,0.0256 0.384736,0.0385 0.564458,0.0385 0.188129,0 0.376253,-0.0129 0.564458,-0.0385 -0.342006,0.23085 -0.898055,0.70985 -1.667767,1.43683 L 55.0557,76.5417 c 0.624394,0.7185 1.629277,1.89439 3.014661,3.52783 z m 5.910317,-0.20525 c -0.461797,0.13691 -0.812519,0.20525 -1.052101,0.20525 -0.39322,0 -0.628554,-0.24806 -0.705377,-0.7441 -0.547334,0.5731 -1.184605,0.85965 -1.911585,0.85965 -1.180049,0 -1.770352,-0.52613 -1.770352,-1.57799 0,-0.89797 0.496119,-1.45395 1.488284,-1.66769 0.470274,-0.0939 0.944952,-0.1882 1.423867,-0.28215 0.401941,-0.0855 0.671366,-0.18813 0.808276,-0.30791 l 0,-0.26943 c 0,-0.57293 -0.109103,-0.9964 -0.327314,-1.27006 -0.217978,-0.27368 -0.583549,-0.41035 -1.096792,-0.41035 -0.70121,0 -1.252943,0.30351 -1.654803,0.9107 l -0.102668,0 0.02583,-0.67984 c 0.572866,-0.47892 1.26135,-0.71849 2.065152,-0.71849 0.718492,0 1.235977,0.1732 1.552374,0.51968 0.316399,0.34625 0.474516,0.89154 0.474516,1.63548 l 0,0.15404 -0.05121,2.55279 c 0,0.29079 0.02137,0.4874 0.0641,0.59006 0.07706,0.171 0.243819,0.25678 0.500361,0.25678 0.09395,0 0.166764,-0.005 0.217979,-0.0129 l 0.05146,0.25655 z m -1.744829,-1.32128 0,-1.65481 c -1.009048,0.171 -1.680415,0.34201 -2.013937,0.51301 -0.419059,0.21396 -0.628555,0.56021 -0.628555,1.03913 0,0.81252 0.380495,1.21862 1.141566,1.21862 0.478915,0 0.906695,-0.18813 1.282949,-0.56445 0.145398,-0.1454 0.217977,-0.32906 0.217977,-0.5515 z m -50.072746,5.54066 c -0.543093,1.59471 -1.510118,4.4917 -2.901468,8.69112 -0.1356556,-0.0339 -0.2841142,-0.0509 -0.445377,-0.0509 -0.1780722,0 -0.3308516,0.0213 -0.4580235,0.0636 C 7.730387,90.62438 6.9499177,88.24903 6.0167476,85.66145 l -2.3795842,7.11336 c -0.1696672,-0.0426 -0.3181261,-0.0637 -0.445298,-0.0637 -0.1273291,0 -0.2756308,0.0211 -0.4452981,0.0637 -0.6532977,-2.16341 -1.5610963,-5.0604 -2.72316015,-8.69112 0.17815068,0.0339 0.38167287,0.0507 0.61080227,0.0507 0.2288937,0 0.43257298,-0.0169 0.61072368,-0.0507 0.6955574,2.57037 1.429447,5.06441 2.2014332,7.48232 0.8821914,-2.41791 1.6797848,-4.91195 2.3923092,-7.48232 0.127329,0.0339 0.2629057,0.0507 0.4072015,0.0507 0.1527791,0 0.2925976,-0.0169 0.4199266,-0.0507 0.7466146,2.44305 1.5608603,4.89474 2.4432877,7.35491 0.8398537,-2.40919 1.5777487,-4.86089 2.2141577,-7.35491 0.127094,0.0339 0.262906,0.0507 0.407202,0.0507 0.161027,0 0.305244,-0.0169 0.432652,-0.0507 z m 3.600402,2.63612 c -0.04273,0.22237 -0.0641,0.54726 -0.0641,0.97496 l -0.102665,0.0642 c -0.213734,-0.11115 -0.419062,-0.16676 -0.615672,-0.16676 -0.478917,0 -0.823201,0.20949 -1.032693,0.62856 -0.209492,0.41905 -0.314356,1.07322 -0.314356,1.96272 0,1.08618 0.02137,1.94983 0.0641,2.59135 -0.16252,-0.0343 -0.346248,-0.0512 -0.551576,-0.0512 -0.154036,0 -0.316399,0.0128 -0.487558,0.0383 0.04273,-1.00912 0.06433,-2.40322 0.06433,-4.18206 0,-0.77819 -0.02161,-1.39826 -0.06433,-1.86005 0.171159,0.0343 0.354887,0.0513 0.551733,0.0513 0.19661,0 0.376253,-0.0171 0.538851,-0.0513 -0.05146,0.41057 -0.07706,0.88077 -0.07706,1.41122 0.461793,-0.98352 0.996402,-1.4754 1.603592,-1.4754 0.09394,0 0.256543,0.0213 0.4874,0.0642 z m 6.736813,3.02746 c 0,0.94079 -0.286549,1.69982 -0.85949,2.27716 -0.572864,0.57718 -1.299841,0.86593 -2.180697,0.86593 -0.889575,0 -1.618516,-0.29079 -2.187451,-0.87237 -0.568621,-0.58158 -0.852971,-1.33841 -0.852971,-2.27072 0,-0.92358 0.288513,-1.67837 0.865932,-2.2642 0.57734,-0.58582 1.302118,-0.87865 2.17449,-0.87865 0.89798,0 1.6292,0.29079 2.193657,0.87221 0.564458,0.58159 0.84653,1.33841 0.84653,2.27064 z m -1.090348,0.077 c 0,-1.89013 -0.654161,-2.83517 -1.962799,-2.83517 -1.291435,0 -1.937114,0.91519 -1.937114,2.74523 0,1.84741 0.649921,2.771 1.950075,2.771 1.299919,0 1.949838,-0.89374 1.949838,-2.68106 z m 7.185725,-2.70689 c -0.136992,0.31639 -0.252302,0.68424 -0.346483,1.1033 -0.359129,-0.8038 -0.940789,-1.20597 -1.744588,-1.20597 -0.675763,0 -1.201653,0.23738 -1.577984,0.71213 -0.376254,0.47468 -0.564459,1.14801 -0.564459,2.02038 0,0.83812 0.20313,1.49873 0.609467,1.98188 0.406102,0.4834 0.947152,0.72501 1.622758,0.72501 0.684246,0 1.329925,-0.30791 1.937114,-0.92381 -0.01712,0.23958 -0.0256,0.39769 -0.0256,0.47475 0,0.11979 0.0039,0.20525 0.01273,0.25647 -0.547335,0.4277 -1.278553,0.64151 -2.193657,0.64151 -0.89798,0 -1.622757,-0.28663 -2.174333,-0.85949 -0.551733,-0.57294 -0.8276,-1.33417 -0.8276,-2.28336 0,-0.95791 0.290791,-1.72346 0.872373,-2.29632 0.581582,-0.5731 1.351368,-0.8595 2.309203,-0.8595 0.735461,0 1.432432,0.17101 2.091071,0.51302 z m 3.080481,-0.67978 c -0.213733,0.12828 -0.521726,0.32489 -0.923587,0.59007 0,2.93328 0.02137,4.84911 0.0641,5.74709 -0.188126,-0.0256 -0.372089,-0.0385 -0.551497,-0.0385 -0.171238,0 -0.342241,0.0128 -0.513243,0.0385 0.03425,-0.99193 0.05145,-2.07387 0.05145,-3.24552 l 0,-1.86013 c -0.111383,0.0855 -0.406416,0.32064 -0.885333,0.70545 l 0,-0.66712 c 0.290791,-0.16229 0.590065,-0.35489 0.89798,-0.57711 l 0,-0.33359 c 0,-1.53942 -0.02137,-2.75388 -0.0641,-3.64314 0.222452,0.0169 0.393455,0.0255 0.513243,0.0255 0.128193,0 0.312156,-0.009 0.551497,-0.0255 -0.04273,0.91487 -0.0641,1.97969 -0.0641,3.19407 l 0,0.14115 c 0.333522,-0.23935 0.641437,-0.48316 0.923587,-0.73122 l 0,0.68 z m 6.095298,6.13183 c -0.461793,0.13699 -0.812439,0.20533 -1.052015,0.20533 -0.39322,0 -0.628634,-0.24806 -0.705455,-0.74411 -0.547255,0.57311 -1.184529,0.85965 -1.911507,0.85965 -1.180129,0 -1.770352,-0.52612 -1.770352,-1.57799 0,-0.89798 0.496041,-1.45395 1.488202,-1.66776 0.470277,-0.0939 0.945031,-0.18813 1.423949,-0.28206 0.401939,-0.0855 0.671286,-0.18814 0.808276,-0.30793 l 0,-0.26942 c 0,-0.57294 -0.109105,-0.99641 -0.327317,-1.27007 -0.217975,-0.27367 -0.583624,-0.41034 -1.096867,-0.41034 -0.701134,0 -1.252868,0.30343 -1.654806,0.91063 l -0.102586,0 0.02577,-0.67977 c 0.572941,-0.47892 1.26143,-0.7185 2.065228,-0.7185 0.718494,0 1.235979,0.17321 1.552378,0.51968 0.316397,0.34625 0.47444,0.89154 0.47444,1.63541 l 0,0.15411 -0.05114,2.55279 c 0,0.2908 0.02137,0.4874 0.0641,0.59007 0.07706,0.171 0.243819,0.2567 0.500283,0.2567 0.09403,0 0.166762,-0.005 0.217976,-0.0129 l 0.05145,0.25646 z m -1.744745,-1.32121 0,-1.65488 c -1.009128,0.17108 -1.680413,0.34208 -2.013935,0.51308 -0.419063,0.21398 -0.628633,0.56014 -0.628633,1.03914 0,0.81244 0.380573,1.21862 1.141641,1.21862 0.478917,0 0.90662,-0.18813 1.282952,-0.56446 0.145395,-0.1454 0.217975,-0.32912 0.217975,-0.5515 z m 11.393552,-4.52846 c -1.368492,3.07891 -2.18101,5.09709 -2.437477,6.055 -0.128269,-0.0256 -0.256544,-0.0385 -0.384969,-0.0385 -0.119553,0 -0.243586,0.0128 -0.371855,0.0385 -0.08554,-0.53013 -0.611669,-2.07387 -1.577988,-4.63114 -0.786907,1.89015 -1.325522,3.43388 -1.616313,4.63114 -0.07706,-0.0171 -0.196846,-0.0256 -0.359129,-0.0256 -0.16252,0 -0.28655,0.008 -0.37209,0.0256 -0.222453,-0.95791 -0.966553,-2.97609 -2.232146,-6.055 0.171002,0.0343 0.359129,0.0513 0.564458,0.0513 0.213733,0 0.406102,-0.0171 0.57734,-0.0513 0.247824,1.00056 0.782433,2.56567 1.603356,4.69523 0.615908,-1.3685 1.176124,-2.93336 1.68065,-4.69523 0.128269,0.0256 0.256543,0.0385 0.384736,0.0385 0.119785,0 0.243818,-0.0129 0.372087,-0.0385 0.564457,2.10387 1.099067,3.66473 1.603595,4.68226 0.453149,-0.93207 1.047613,-2.49285 1.783077,-4.68226 0.188123,0.0171 0.32064,0.0256 0.397694,0.0256 0.08546,0 0.213737,-0.008 0.384975,-0.0256 z m 4.171064,4.15637 c 0,0.58159 -0.209489,1.06254 -0.628555,1.44328 -0.419298,0.38049 -0.96655,0.57089 -1.642078,0.57089 -0.667124,0 -1.218701,-0.15403 -1.654884,-0.46202 0.128269,-0.32489 0.230936,-0.65417 0.307758,-0.98769 0.419298,0.64993 0.940711,0.97504 1.565099,0.97504 0.384975,0 0.688409,-0.10486 0.910862,-0.31443 0.222453,-0.2095 0.333522,-0.49385 0.333522,-0.85298 0,-0.51324 -0.337764,-0.86373 -1.013523,-1.05185 L 49.17948,90.02957 c -0.487404,-0.13699 -0.840324,-0.3336 -1.058303,-0.5903 -0.217972,-0.25654 -0.32708,-0.61143 -0.32708,-1.06474 0,-0.513 0.179489,-0.93631 0.538851,-1.26983 0.359128,-0.3336 0.833882,-0.50037 1.423948,-0.50037 0.615597,0 1.150206,0.14101 1.603595,0.42331 -0.128508,0.26519 -0.218211,0.53461 -0.269426,0.80828 -0.487636,-0.56446 -0.983523,-0.84685 -1.488284,-0.84685 -0.324881,0 -0.587783,0.10047 -0.788871,0.30155 -0.200854,0.20101 -0.301473,0.45975 -0.301473,0.77615 0,0.53013 0.325038,0.88934 0.975034,1.07747 l 0.872372,0.2567 c 0.820926,0.23942 1.231502,0.73122 1.231502,1.47516 z m 6.582776,1.89863 c -0.213812,-0.0343 -0.453388,-0.0512 -0.718333,-0.0512 -0.24806,0 -0.470437,0.0169 -0.667044,0.0512 -1.565106,-2.12108 -2.467327,-3.18142 -2.706904,-3.18142 -0.08554,0 -0.128268,0.06 -0.128268,0.17949 l 0,0.71856 c 0,0.71827 0.02564,1.47957 0.07705,2.28337 -0.196846,-0.0428 -0.376329,-0.0641 -0.538851,-0.0641 -0.162516,0 -0.342005,0.0213 -0.538851,0.0641 0.04273,-1.65057 0.0641,-3.25416 0.0641,-4.81062 0,-1.84741 -0.02137,-3.45077 -0.0641,-4.81054 0.239576,0.034 0.419066,0.0512 0.538851,0.0512 0.119791,0 0.299274,-0.017 0.538851,-0.0512 -0.05146,2.08652 -0.07705,3.92976 -0.07705,5.52888 l 0,0.43618 c 0,0.1454 0.07282,0.21797 0.218211,0.21797 0.136677,0 0.435951,-0.21372 0.89798,-0.64127 0.547334,-0.50452 1.141559,-1.16317 1.783078,-1.9756 0.196607,0.0256 0.384736,0.0385 0.564458,0.0385 0.188122,0 0.376252,-0.0129 0.564458,-0.0385 -0.342006,0.23085 -0.898062,0.70977 -1.667767,1.43683 l -1.154523,1.09034 c 0.624389,0.7185 1.629278,1.89438 3.014655,3.52783 z M 64,92.5694 c -0.461797,0.13699 -0.812443,0.20533 -1.0521,0.20533 -0.393139,0 -0.628555,-0.24806 -0.705377,-0.74411 -0.547253,0.57311 -1.184529,0.85965 -1.911503,0.85965 -1.180131,0 -1.770353,-0.52612 -1.770353,-1.57799 0,-0.89798 0.496038,-1.45395 1.488203,-1.66776 0.470274,-0.0939 0.945028,-0.18813 1.423949,-0.28206 0.40186,-0.0855 0.671284,-0.18814 0.808275,-0.30793 l 0,-0.26942 c 0,-0.57294 -0.109109,-0.99641 -0.327319,-1.27007 -0.217973,-0.27367 -0.583625,-0.41034 -1.096868,-0.41034 -0.701135,0 -1.252867,0.30343 -1.654803,0.91063 l -0.102667,0 0.02583,-0.67977 c 0.572942,-0.47892 1.261432,-0.7185 2.065228,-0.7185 0.718497,0 1.235982,0.17321 1.552381,0.51968 0.316391,0.34625 0.474433,0.89154 0.474433,1.63541 l 0,0.15411 -0.05121,2.55279 c 0,0.2908 0.02143,0.4874 0.06418,0.59007 0.07705,0.171 0.243818,0.2567 0.500279,0.2567 0.09395,0 0.166765,-0.005 0.217979,-0.0129 l 0.05146,0.25646 z m -1.744751,-1.32121 0,-1.65488 c -1.009125,0.17108 -1.680411,0.34208 -2.013933,0.51308 -0.419065,0.21398 -0.628636,0.56014 -0.628636,1.03914 0,0.81244 0.380576,1.21862 1.141641,1.21862 0.478921,0 0.90662,-0.18813 1.282955,-0.56446 0.145392,-0.1454 0.217973,-0.32912 0.217973,-0.5515"
     style="fill:#000000;fill-opacity:1;fill-rule:evenodd;stroke:none"
     id="path84"
     inkscape:connector-curvature="0" /></svg>
