<?xml version="1.0" encoding="UTF-8" standalone="no"?>
<svg
   xmlns:dc="http://purl.org/dc/elements/1.1/"
   xmlns:cc="http://creativecommons.org/ns#"
   xmlns:rdf="http://www.w3.org/1999/02/22-rdf-syntax-ns#"
   xmlns:svg="http://www.w3.org/2000/svg"
   xmlns="http://www.w3.org/2000/svg"
   viewBox="0 0 64 92.903"
   height="92.903"
   width="64"
   xml:space="preserve"
   version="1.1"
   id="svg2"><metadata
     id="metadata8"><rdf:RDF><cc:Work
         rdf:about=""><dc:format>image/svg+xml</dc:format><dc:type
           rdf:resource="http://purl.org/dc/dcmitype/StillImage" /><dc:title></dc:title></cc:Work></rdf:RDF></metadata><defs
     id="defs6" /><g
     transform="matrix(1.25,0,0,-1.25,0,92.903018)"
     id="g10"><g
       transform="matrix(0.63981685,0,0,0.6398135,-200.93346,-213.24362)"
       id="g4252"><path
         d="m 314.0484,449.4529 79.0543,0 0,-79.0642 -79.0543,0 0,79.0642 z"
         style="fill:#1f1917;fill-opacity:1;fill-rule:evenodd;stroke:none"
         id="path94" /><path
         d="m 342.089,424.2192 c 0.1792,-8.9989 4.513,-15.9951 13.4459,-16.5595 l 8e-4,2.5203 c -7.2312,0.2316 -12.638,7.367 -13.2987,14.0392 l -0.148,0 z m -1.438,-1.4372 c -0.4944,0 -0.8975,0.4255 -0.8975,0.9485 0,0.523 0.4031,0.949 0.8975,0.949 0.4941,0 0.8972,-0.426 0.8972,-0.949 0,-0.523 -0.4031,-0.9485 -0.8972,-0.9485 z m 3.0444,0.2724 c -0.4941,0 -0.8974,0.4258 -0.8974,0.9491 0,0.5224 0.4033,0.9487 0.8974,0.9487 0.4944,0 0.8977,-0.4263 0.8977,-0.9487 0,-0.5233 -0.4033,-0.9491 -0.8977,-0.9491 z m -1.6481,1.6682 c -0.4952,0 -0.8983,0.4269 -0.8983,0.9491 0,0.5224 0.4031,0.9496 0.8983,0.9496 0.4936,0 0.8966,-0.4272 0.8966,-0.9496 0,-0.5222 -0.403,-0.9491 -0.8966,-0.9491 z m 13.4796,-46.4275 -0.0144,0 c -0.6103,1.4346 -0.9791,2.7859 -1.1574,3.835 -0.1335,0.7857 -0.178,1.4785 -0.1726,2.09 0.004,0.6111 0.0598,1.1449 0.1167,1.6149 0.1129,0.9433 0.2452,1.6429 0.0411,2.2424 -0.2919,0.1673 -1.8975,-1.8558 -2.9678,-2.0219 -1.7791,-0.2764 -1.9681,1.0633 -3.2769,1.5636 0.9601,0.3662 1.6747,0.2903 2.5138,0.7228 0.7265,0.375 1.2365,1.1412 2.0406,1.3731 0.5559,0.1602 1.2019,0.0961 1.8899,-0.2613 0.2421,0 0.0587,0.4864 -0.1519,1.1287 -0.1633,0.4975 -0.4006,1.1095 -0.4113,1.6365 -0.01,0.4711 0.1695,0.8753 0.5632,1.133 -0.4,0.6877 -0.6505,1.3773 -0.6865,1.8776 -0.0823,1.1495 0.2956,1.751 0.2491,2.5733 -0.0331,0.5888 -0.0212,1.4434 -0.246,1.7652 -0.8646,-0.33 -2.2958,-5.2135 -2.41,-6.1319 l -1.2566,0.7605 -0.7818,-1.3697 c -0.2968,-0.5199 1.2038,-2.0747 -0.4017,-2.9149 l -0.0593,0.0374 c 0.1511,0.4604 0.1588,0.8711 -0.1981,1.3383 -0.6024,0.788 -1.4233,0.2276 -2.5886,1.0159 -0.6009,0.688 -1.404,0.7464 -1.9295,0.5287 -0.362,-0.15 -0.6378,-0.4374 -0.669,-0.9831 l -0.0709,-0.0297 c -0.3435,0.7724 -0.0371,1.3824 0.438,1.7614 1.1809,0.9422 4.0839,-0.5454 4.4044,0 l 0.7274,1.2371 -1.245,0.7849 c 3.1371,2.2408 3.1527,6.0811 2.9129,9.5828 l -0.2001,0.1014 c -0.5131,-3.2232 -1.9179,-5.6502 -4.1502,-7.3678 -0.8396,-0.6463 -1.8782,-1.2427 -3.026,-0.2704 1.3793,0.9255 2.7516,2.8517 3.2037,4.4702 0.4425,1.5849 0.6336,3.4288 0.5672,5.4797 l -0.1635,0.14 c -0.6234,-3.5832 -2.5705,-5.4113 -3.875,-6.3567 -0.9238,-0.6692 -2.0341,-1.277 -3.052,-0.3585 1.4989,1.2257 2.6625,2.8386 3.2635,4.5238 0.6281,1.7606 0.8339,3.7032 0.6673,5.6622 l -0.1432,0.1873 c -0.7818,-3.34 -1.6035,-4.9935 -3.5147,-6.4482 -0.9606,-0.7316 -2.0625,-1.156 -3.1527,-0.1721 1.9854,1.5174 2.8012,2.8656 3.3622,5.1823 0.5542,2.2896 0.8884,4.2503 0.8547,6.8145 l -0.146,0.5258 c -0.7549,-4.257 -1.9279,-6.9054 -3.3018,-8.0784 -0.9275,-0.7917 -2.1351,-1.3794 -2.8562,-0.5239 0.919,1.0525 1.4998,2.1989 1.8091,3.4405 0.6312,2.5338 0.4955,4.6468 0.4467,8.0435 -0.0317,2.2182 0.2083,4.3337 1.2487,6.2116 1.0681,1.9287 3.4455,2.4117 5.1752,1.9077 2.8187,-0.8518 3.5453,-4.1947 2.2147,-6.2657 -0.7033,-1.0944 -0.5933,-2.4967 -0.2189,-3.1856 0.4593,-0.8452 1.4097,-1.7158 2.3355,-2.4633 0.836,-0.6746 3.2173,-2.3255 4.6984,-2.0863 -0.0686,0.8666 0.1661,1.8136 0.4539,2.7769 0.288,0.9615 0.6304,1.9414 0.7764,2.8703 0.1324,0.8439 0.0229,1.8389 -0.4091,2.4129 -0.5,0.5074 -1.0105,0.7517 -1.5137,0.9269 -0.6471,0.2254 -1.0253,0.33 -1.4057,0.8476 -0.1995,0.2715 -0.2656,0.7835 -0.3089,1.3354 0.3407,-0.3714 0.6083,-0.6251 0.9136,-0.7833 0.2758,-0.1431 1.0817,-0.3724 1.3317,-0.0856 -0.2642,0.5848 -0.7472,1.0851 -1.3272,1.3683 -0.7739,0.3787 -1.5066,0.2234 -2.0761,-0.3861 -0.1621,0.6092 -0.0624,1.3408 0.4272,1.7884 0.5105,0.4666 1.5721,0.2985 2.1353,-0.003 -0.0697,0.4462 0.1661,0.8748 0.8045,0.9397 0.4377,0.0442 0.8838,-0.0816 1.2971,-0.1993 0.6205,-0.1763 1.0883,-0.447 1.666,-0.7546 l -0.0134,-49.0586 z m -3.3072,48.8418 c 0.2107,-0.1026 0.415,-0.2741 0.5758,-0.4533 0.2347,-0.2837 0.9929,-0.1426 1.4255,-0.2727 0.2631,-0.0791 0.3867,-0.1888 0.4051,-0.1403 -0.1313,0.2685 -0.2234,0.5375 -0.4431,0.7464 -0.4787,0.4547 -1.9247,0.7736 -1.9633,0.1199 z m 16.7715,-2.918 c -0.1789,-8.9989 -4.513,-15.9948 -13.4458,-16.5594 l -6e-4,2.5202 c 7.2312,0.2319 12.638,7.3673 13.2987,14.0392 l 0.1477,0 z m 1.4383,-1.4372 c 0.4944,0 0.8975,0.4258 0.8975,0.9485 0,0.523 -0.4031,0.949 -0.8975,0.949 -0.4941,0 -0.8972,-0.426 -0.8972,-0.949 0,-0.5227 0.4031,-0.9485 0.8972,-0.9485 z m -3.0444,0.2724 c 0.4938,0 0.8975,0.4258 0.8975,0.9494 0,0.5221 -0.4037,0.9484 -0.8975,0.9484 -0.4946,0 -0.8977,-0.4263 -0.8977,-0.9484 0,-0.5236 0.4031,-0.9494 0.8977,-0.9494 z m 1.6483,1.6682 c 0.495,0 0.8981,0.4269 0.8981,0.9491 0,0.5224 -0.4031,0.9496 -0.8981,0.9496 -0.494,0 -0.8971,-0.4272 -0.8971,-0.9496 0,-0.5222 0.4031,-0.9491 0.8971,-0.9491 z m 10.9321,6.0066 c -0.2001,-10.7761 -0.3767,-44.4044 -24.3958,-52.4341 l -0.0161,0 c 0.6125,1.4377 0.9924,2.7839 1.1718,3.8353 0.1338,0.7863 0.178,1.4782 0.1726,2.0897 -0.004,0.6111 -0.06,1.1449 -0.1167,1.6149 -0.1131,0.9433 -0.2455,1.6429 -0.0411,2.2427 0.2919,0.1673 1.8975,-1.8561 2.9675,-2.0222 1.7796,-0.2761 1.9684,1.0633 3.2772,1.5639 -0.9601,0.3659 -1.6747,0.29 -2.5138,0.7228 -0.7265,0.375 -1.2367,1.141 -2.0406,1.3728 -0.5559,0.1602 -1.2016,0.0964 -1.8899,-0.2613 -0.2421,0 -0.0587,0.4864 0.1519,1.1287 0.1633,0.4975 0.4003,1.1095 0.4113,1.6365 0.01,0.4711 -0.1695,0.8753 -0.5632,1.133 0.4,0.6877 0.6505,1.3773 0.6863,1.8777 0.0825,1.1494 -0.2954,1.7509 -0.2492,2.5733 0.0332,0.589 0.0215,1.4434 0.246,1.7651 0.8649,-0.3297 2.2961,-5.2135 2.4101,-6.1316 l 1.2568,0.7602 0.7818,-1.3694 c 0.2968,-0.5202 -1.2038,-2.075 0.4014,-2.9152 l 0.0596,0.0375 c -0.1511,0.4606 -0.1588,0.8711 0.1981,1.3379 0.6024,0.7883 1.4233,0.2279 2.5886,1.0162 0.6009,0.688 1.404,0.7467 1.9293,0.5287 0.3622,-0.15 0.638,-0.4374 0.6692,-0.9828 l 0.0709,-0.03 c 0.3435,0.7724 0.0371,1.3824 -0.438,1.7617 -1.1809,0.942 -4.0838,-0.5454 -4.4044,0 l -0.7274,1.2368 1.245,0.7849 c -3.1371,2.2408 -3.1527,6.0814 -2.9129,9.5828 l 0.2001,0.1015 c 0.5131,-3.2233 1.9179,-5.6503 4.1502,-7.3678 0.8396,-0.6463 1.8782,-1.2428 3.026,-0.2705 -1.3793,0.9255 -2.7516,2.8517 -3.2037,4.4703 -0.4425,1.5851 -0.6336,3.4288 -0.5672,5.4796 l 0.1632,0.1401 c 0.6237,-3.583 2.5708,-5.4114 3.8753,-6.3567 0.9238,-0.6693 2.0341,-1.277 3.052,-0.3586 -1.4992,1.2257 -2.6628,2.8386 -3.2635,4.5238 -0.6281,1.7606 -0.8339,3.7035 -0.6673,5.6622 l 0.1432,0.1876 c 0.7821,-3.34 1.6036,-4.9938 3.5144,-6.4485 0.9609,-0.7316 2.0628,-1.156 3.153,-0.1721 -1.9854,1.5174 -2.8012,2.8656 -3.3622,5.1826 -0.5542,2.2896 -0.8884,4.25 -0.8547,6.8142 l 0.146,0.5261 c 0.7546,-4.2573 1.9276,-6.9057 3.3018,-8.0787 0.9275,-0.7917 2.1351,-1.3791 2.8562,-0.5238 -0.919,1.0525 -1.4998,2.1988 -1.8091,3.4404 -0.6312,2.5341 -0.4955,4.6471 -0.4467,8.0436 0.0315,2.2181 -0.2086,4.3336 -1.2487,6.2115 -1.0681,1.9287 -3.4458,2.412 -5.1755,1.9077 -2.8182,-0.8518 -3.545,-4.1944 -2.2144,-6.2654 0.703,-1.0947 0.5933,-2.497 0.2189,-3.1858 -0.4593,-0.8453 -1.4097,-1.7156 -2.3355,-2.4633 -0.8359,-0.6747 -3.2173,-2.3256 -4.6984,-2.0863 0.0683,0.8668 -0.1661,1.8136 -0.4539,2.7768 -0.288,0.9615 -0.6304,1.9414 -0.7764,2.8703 -0.1323,0.8439 -0.0232,1.8389 0.4091,2.4129 0.5,0.5077 1.0105,0.7517 1.5137,0.9269 0.6468,0.2254 1.0253,0.33 1.4057,0.8479 0.1995,0.2712 0.2656,0.7835 0.3089,1.3351 -0.3407,-0.3714 -0.6083,-0.6248 -0.9136,-0.7832 -0.2758,-0.1432 -1.0817,-0.3725 -1.3317,-0.0856 0.2642,0.585 0.7472,1.0851 1.3269,1.3685 0.7742,0.3784 1.5069,0.2234 2.0764,-0.3861 0.1619,0.6089 0.0621,1.3405 -0.4272,1.7881 -0.5105,0.4666 -1.5721,0.2988 -2.1353,-0.003 0.0694,0.4462 -0.1661,0.8748 -0.8045,0.9397 -0.4379,0.0442 -0.8838,-0.0816 -1.2971,-0.1993 -0.6205,-0.1766 -1.0882,-0.447 -1.6659,-0.7546 l -9e-4,3.3755 24.4261,0 z m -21.1047,-3.5923 c -0.2107,-0.1026 -0.4153,-0.2741 -0.5758,-0.453 -0.2347,-0.2837 -0.9932,-0.1428 -1.4255,-0.273 -0.2633,-0.079 -0.3869,-0.1887 -0.4051,-0.1403 0.131,0.2685 0.2231,0.5378 0.4431,0.7464 0.4788,0.4547 1.9247,0.7736 1.9633,0.1199 z m -26.6573,-48.8418 -0.2194,0 -4.8016,59.4431 0.1125,0 c 0.8291,-2.3151 3.0535,-2.8973 4.9085,-1.5775 l 0,-57.8656 z m 47.7623,58.0856 0,-0.22 -47.7623,0 c 1.6832,1.696 1.0442,4.3608 -1.1676,5.2912 l 0,0.0946 48.9299,-5.1658 z"
         style="fill:#ffffff;fill-opacity:1;fill-rule:evenodd;stroke:none"
         id="path96" /><path
         d="m 321.1169,357.5735 c 0,1.7754 -1.2657,2.8276 -3.6,2.8276 -0.9865,0 -1.874,-0.1151 -2.6796,-0.1151 -0.2302,0 -0.4768,0.0162 -0.7889,0.0493 0.0658,-1.7098 0.0987,-3.5345 0.0987,-5.5071 0,-1.874 -0.0329,-3.6987 -0.0987,-5.4768 0.2795,0.0521 0.5426,0.085 0.8053,0.085 0.2302,0 0.4439,-0.0329 0.6741,-0.0658 -0.0658,1.1509 -0.0822,2.0549 -0.0822,2.7125 l 0,2.3015 c 0.5097,-0.0329 0.9371,-0.0329 1.2164,-0.0329 2.9097,0 4.4549,1.1834 4.4549,3.2218 z m -1.5123,-0.1315 c 0,-1.6767 -1.1509,-2.5152 -3.452,-2.5152 -0.2466,0 -0.4768,0.0165 -0.7234,0.0329 l 0,1.4468 c 0,1.167 0.0328,2.2683 0.0822,3.3041 0.3452,0.0329 0.674,0.0493 1.0029,0.0493 2.1203,0 3.0903,-0.5919 3.0903,-2.3179 z m 9.3042,-4.2905 c 0,2.3343 -1.5781,3.9288 -3.8138,3.9288 -2.1699,0 -3.8137,-1.5945 -3.8137,-3.9288 0,-2.3508 1.5945,-3.9481 3.8137,-3.9481 2.1864,0 3.8138,1.548 3.8138,3.9481 z m -1.3808,-0.0986 c 0,-2.2029 -0.8549,-3.3534 -2.433,-3.3534 -1.5945,0 -2.4494,1.1834 -2.4494,3.4684 0,2.2686 0.8549,3.4359 2.433,3.4359 1.5945,0 2.4494,-1.2166 2.4494,-3.5509 z m 4.4714,-3.7015 c -0.0494,1.3975 -0.0658,3.7644 -0.0658,7.0962 0,1.8218 0,3.4657 0.0658,4.9425 -0.2138,-0.0164 -0.4604,-0.0329 -0.6905,-0.0329 -0.1973,0 -0.4275,0.0165 -0.6412,0.0329 0.0657,-0.8878 0.0657,-1.9207 0.0657,-3.1371 l 0,-4.2194 c 0,-2.052 0,-3.611 -0.0657,-4.6822 0.2137,0.0357 0.4274,0.0521 0.6412,0.0521 0.2301,0 0.4603,-0.0164 0.6905,-0.0521 z m 4.0107,10.3756 c 0,0.4604 -0.3614,0.8053 -0.8218,0.8053 -0.4439,0 -0.822,-0.3449 -0.822,-0.8053 0,-0.4439 0.3781,-0.8056 0.822,-0.8056 0.4604,0 0.8218,0.3617 0.8218,0.8056 z m -0.1641,-10.3756 c -0.0493,1.3178 -0.0822,2.6521 -0.0822,3.9838 0,1.2328 0.0329,2.4191 0.0822,3.6028 -0.1973,-0.0493 -0.4275,-0.0657 -0.6577,-0.0657 -0.2137,0 -0.4274,0.0164 -0.6576,0.0657 0.0493,-1.1673 0.0822,-2.37 0.0822,-3.6028 0,-1.3317 -0.0329,-2.666 -0.0822,-3.9838 0.2302,0.0521 0.4439,0.085 0.6576,0.085 0.2302,0 0.4604,-0.0329 0.6577,-0.085 z m 6.2464,0.3809 -0.1148,0.3617 c -0.4603,-0.2301 -0.8385,-0.3452 -1.118,-0.3452 -1.019,0 -1.3479,0.6245 -1.3479,2.0412 0,1.463 0.0658,2.6986 0.0658,3.7177 0,0.0822 0.0165,0.3617 0.0329,0.8056 0.1644,0.0164 0.3617,0.0164 0.5751,0.0164 0.4111,0 0.9043,-0.0164 1.4797,-0.0493 l 0,0.1315 c 0,0.1973 0.0165,0.3781 0.0494,0.5261 -0.8057,-0.0657 -1.4962,-0.0822 -2.0878,-0.0822 l 0,1.0491 c 0,0.1644 0.0165,0.5754 0.0494,1.2631 -0.3782,-0.1808 -0.8056,-0.3123 -1.2989,-0.3946 0.0165,-0.4246 0.0332,-0.8685 0.0332,-1.3424 l 0,-0.5423 c -0.3288,0 -0.6905,0.0164 -1.0194,0.0493 0,-0.0657 0.0165,-0.148 0.0165,-0.2466 0,-0.1315 -0.0165,-0.2795 -0.0329,-0.4275 0.2795,0.0329 0.5587,0.0494 0.8385,0.0494 l 0.1641,0 0,-0.5426 c 0,-2.1067 -0.0822,-3.5699 -0.0822,-4.3753 0,-1.5151 0.559,-2.2082 2.0549,-2.2082 0.6083,0 1.2166,0.1999 1.7424,0.5451 z m 7.2332,3.8631 c 0,2.2521 -1.2002,3.5014 -3.2383,3.5014 -2.2357,0 -3.699,-1.5781 -3.699,-3.9617 0,-2.3179 1.5291,-3.9317 3.7973,-3.9317 0.9865,0 1.8907,0.3152 2.729,0.9235 l 0,0.1973 c 0,0.1806 0.0164,0.3943 0.0328,0.6081 -0.7563,-0.7396 -1.5451,-1.0849 -2.4823,-1.0849 -1.7424,0 -2.6957,1.1671 -2.6957,3.3534 l 0,0.0493 5.5397,0 c 0,0.1151 0.0165,0.2302 0.0165,0.3453 z m -1.2986,0.2137 -4.2247,0 c 0.0657,1.726 1.019,2.7947 2.2192,2.7947 1.2328,0 2.0055,-0.9207 2.0055,-2.5316 l 0,-0.2631 z m 9.074,2.63 c -0.8385,0.4275 -1.7096,0.6412 -2.6138,0.6412 -2.4001,0 -3.9946,-1.5616 -3.9946,-3.9452 0,-2.4001 1.5287,-3.9479 3.7644,-3.9479 1.1344,0 2.0222,0.2492 2.7454,0.8082 -0.0165,0.0986 -0.0165,0.2137 -0.0165,0.3288 0,0.1641 0.0165,0.3614 0.0329,0.5916 -0.7727,-0.7889 -1.5287,-1.167 -2.433,-1.167 -1.6602,0 -2.7944,1.2821 -2.7944,3.4027 0,2.1864 1.0026,3.4191 2.6958,3.4191 1.0029,0 1.7263,-0.4929 2.1863,-1.5122 0.0987,0.5096 0.2467,0.9864 0.4275,1.3807 z m 7.8412,-7.0877 c -0.0329,1.0712 -0.0658,1.8932 -0.0658,2.4687 0,0.9533 0.0494,1.7753 0.0494,2.4658 0,1.8576 -0.8547,2.7944 -2.5645,2.7944 -1.0684,0 -1.8083,-0.4439 -2.4985,-1.4629 0,0.7724 -0.0164,1.5122 -0.0164,2.1999 0,1.033 0.0164,2.2303 0.0493,3.5728 -0.1973,-0.0329 -0.4275,-0.0658 -0.6577,-0.0658 -0.1972,0 -0.4274,0.0329 -0.674,0.0658 0.0493,-1.885 0.0822,-3.8823 0.0822,-6.0029 0,-1.118 -0.0165,-3.1232 -0.0822,-6.0358 0.2137,0.0521 0.4274,0.085 0.6412,0.085 0.2301,0 0.4603,-0.0329 0.674,-0.085 -0.0164,0.8742 -0.0328,1.4986 -0.0328,1.8768 l 0,1.1509 c 0,1.3478 0.0328,2.2847 0.3123,2.8437 0.3617,0.6905 0.9698,1.0522 1.7261,1.0522 1.3643,0 1.8246,-0.8385 1.8246,-2.6467 0,-1.0687 -0.0329,-2.4988 -0.0822,-4.2769 0.2302,0.0521 0.4439,0.085 0.6574,0.085 0.2301,0 0.4603,-0.0329 0.6576,-0.085 z m 8.7619,0 c -0.0329,0.9071 -0.0493,1.7453 -0.0493,2.5344 0,0.7563 0.0329,1.5452 0.0329,2.3344 0,1.9233 -0.855,2.8766 -2.5646,2.8766 -1.0851,0 -1.9068,-0.5097 -2.5151,-1.5617 0,0.1973 -0.0165,0.3946 -0.0165,0.5919 0,0.2628 0.0165,0.5259 0.0329,0.8053 -0.1973,-0.0493 -0.411,-0.0657 -0.6412,-0.0657 -0.197,0 -0.4272,0.0164 -0.6573,0.0657 0.0657,-1.1341 0.0657,-2.3343 0.0657,-3.6493 l 0,-1.1341 c 0,-0.97 0,-1.8904 -0.0657,-2.7975 0.2301,0.0521 0.4439,0.085 0.6573,0.085 0.2302,0 0.4604,-0.0329 0.6741,-0.085 -0.0329,0.8249 -0.0329,1.811 -0.0329,3.0112 l 0,0.7231 c 0,1.0687 0.0329,1.874 0.5426,2.4988 0.3617,0.4768 0.871,0.6905 1.4958,0.6905 1.2163,0 1.8247,-0.7892 1.8247,-2.3672 0,-1.9069 -0.0329,-3.4356 -0.0987,-4.5564 0.2302,0.0521 0.4439,0.085 0.6577,0.085 0.2137,0 0.4439,-0.0329 0.6576,-0.085 z m 4.011,10.3756 c 0,0.4604 -0.3617,0.8053 -0.822,0.8053 -0.4439,0 -0.8218,-0.3449 -0.8218,-0.8053 0,-0.4439 0.3779,-0.8056 0.8218,-0.8056 0.4603,0 0.822,0.3617 0.822,0.8056 z m -0.1644,-10.3756 c -0.0493,1.3178 -0.0822,2.6521 -0.0822,3.9838 0,1.2328 0.0329,2.4191 0.0822,3.6028 -0.1973,-0.0493 -0.4275,-0.0657 -0.6576,-0.0657 -0.2138,0 -0.4275,0.0164 -0.6577,0.0657 0.0494,-1.1673 0.0822,-2.37 0.0822,-3.6028 0,-1.3317 -0.0328,-2.666 -0.0822,-3.9838 0.2302,0.0521 0.4439,0.085 0.6577,0.085 0.2301,0 0.4603,-0.0329 0.6576,-0.085 z m 9.1069,0 c -1.4465,1.7124 -2.7122,3.1782 -3.7809,4.4277 l 1.4465,1.3669 c 0.8714,0.822 1.5455,1.4303 2.0878,1.792 -0.2302,-0.0329 -0.4765,-0.0493 -0.7067,-0.0493 -0.2302,0 -0.4604,0.0164 -0.707,0.0493 -1.7589,-2.2385 -3.0577,-3.274 -3.3534,-3.274 -0.1808,0 -0.263,0.0984 -0.263,0.2792 l 0,0.5426 c 0,2.0083 0.0164,4.3015 0.0822,6.9043 -0.2137,-0.0329 -0.4439,-0.0658 -0.6741,-0.0658 -0.2137,0 -0.4439,0.0329 -0.6738,0.0658 0.0655,-2.0302 0.0819,-4.0275 0.0819,-5.9975 0,-1.5477 -0.0164,-3.5535 -0.0819,-6.0412 0.2299,0.0521 0.4601,0.085 0.6738,0.085 0.2302,0 0.4604,-0.0329 0.6741,-0.085 -0.0822,1.252 -0.0822,2.222 -0.0822,2.8658 l 0,0.9042 c 0,0.148 0,0.2138 0.148,0.2138 0.2466,0 1.4136,-1.2989 3.4027,-3.9838 0.263,0.0521 0.5425,0.0686 0.822,0.0686 0.2957,0 0.608,-0.0165 0.904,-0.0686 z m 7.4137,0.2659 -0.0655,0.3123 c -0.0989,-0.0164 -0.1973,-0.0164 -0.2798,-0.0164 -0.608,0 -0.7066,0.2959 -0.7066,1.0684 l 0,0.4439 0.0657,2.7453 0,0.1973 c 0,1.8247 -0.7069,2.6958 -2.5316,2.6958 -1.0029,0 -1.9069,-0.3124 -2.5974,-0.904 l -0.0326,-0.8385 0.1313,0 c 0.4932,0.7563 1.1837,1.1342 2.0712,1.1342 1.2989,0 1.7918,-0.6903 1.7918,-2.1039 l 0,-0.3453 c -0.4107,-0.3617 -1.3807,-0.4274 -2.7944,-0.7234 -1.2656,-0.2795 -1.874,-0.9533 -1.874,-2.1041 0,-1.2493 0.7889,-1.9755 2.2193,-1.9755 0.9204,0 1.726,0.381 2.3998,1.0879 0.0986,-0.6412 0.3288,-0.9371 0.8878,-0.9371 0.4604,0 0.8714,0.1315 1.315,0.2631 z m -2.1861,1.6438 c 0,-0.2302 -0.0167,-0.4275 -0.2798,-0.6905 -0.4271,-0.4272 -1.0848,-0.7067 -1.6109,-0.7067 -0.8875,0 -1.4301,0.5587 -1.4301,1.5287 0,1.2657 1.0029,1.5616 3.3208,1.9397 l 0,-2.0712 z"
         style="fill:#1f1917;fill-opacity:1;fill-rule:nonzero;stroke:none"
         id="path98" /><path
         d="m 329.2659,344.3632 c -0.1794,-0.049 -0.3591,-0.0652 -0.5388,-0.0652 -0.1795,0 -0.3428,0.0162 -0.506,0.0652 -0.8002,-3.1186 -1.7309,-6.2044 -2.7757,-9.2253 -1.1268,3.1025 -2.139,6.1883 -3.0699,9.2253 -0.1795,-0.049 -0.3592,-0.0652 -0.5225,-0.0652 -0.1794,0 -0.3427,0.0162 -0.5224,0.0652 -0.898,-3.2981 -1.9103,-6.4167 -2.988,-9.3883 -1.0448,3.2329 -1.9593,6.3677 -2.7757,9.3883 -0.2449,-0.049 -0.5062,-0.0652 -0.7512,-0.0652 -0.261,0 -0.5224,0.0162 -0.7673,0.0652 1.241,-3.886 2.3839,-7.5106 3.4124,-10.9097 0.1961,0.0516 0.3755,0.0845 0.5553,0.0845 0.1958,0 0.3756,-0.0329 0.5553,-0.0845 0.4734,1.3091 1.453,4.2806 2.988,8.9178 1.0939,-3.037 2.0897,-6.0086 2.9389,-8.9342 0.1959,0.068 0.3753,0.0845 0.5715,0.0845 0.1959,0 0.3756,-0.0165 0.555,-0.0681 1.192,3.5623 2.384,7.187 3.6411,10.9097 z m 4.4578,-3.3797 c -0.2614,0.0488 -0.4575,0.0816 -0.6044,0.0816 -0.7837,0 -1.4204,-0.6205 -1.9919,-1.8289 0,0.6534 0.0326,1.241 0.0817,1.7473 -0.2123,-0.049 -0.4408,-0.0655 -0.6696,-0.0655 -0.2123,0 -0.4408,0.0165 -0.6857,0.0655 0.0652,-0.6857 0.0817,-1.4533 0.0817,-2.3023 0,-2.3349 -0.0326,-4.0819 -0.0817,-5.2087 0.2123,0.0326 0.4082,0.0491 0.6041,0.0491 0.2285,0 0.4737,-0.0165 0.7021,-0.0681 -0.049,0.7212 -0.0816,1.7989 -0.0816,3.2194 0,2.1716 0.4572,3.2329 1.6653,3.2329 0.2614,0 0.5063,-0.0652 0.7677,-0.2124 l 0.1304,0.0817 c 0,0.4572 0.0164,0.8818 0.0819,1.2084 z m 8.327,-3.7556 c 0,2.3187 -1.5675,3.9024 -3.7879,3.9024 -2.1555,0 -3.7882,-1.5837 -3.7882,-3.9024 0,-2.3349 1.5837,-3.9215 3.7882,-3.9215 2.1716,0 3.7879,1.5378 3.7879,3.9215 z m -1.3714,-0.0978 c 0,-2.1881 -0.8492,-3.331 -2.4165,-3.331 -1.584,0 -2.433,1.1758 -2.433,3.4452 0,2.2533 0.849,3.4126 2.4166,3.4126 1.5837,0 2.4329,-1.2084 2.4329,-3.5268 z m 9.0457,3.3636 c -0.8328,0.4243 -1.6983,0.6366 -2.5963,0.6366 -2.3839,0 -3.9676,-1.5511 -3.9676,-3.9186 0,-2.3839 1.5185,-3.9214 3.7389,-3.9214 1.1267,0 2.0086,0.2477 2.7269,0.8027 -0.0164,0.0981 -0.0164,0.2124 -0.0164,0.3266 0,0.1633 0.0164,0.3591 0.0326,0.5879 -0.7674,-0.7838 -1.5183,-1.1594 -2.4163,-1.1594 -1.6492,0 -2.776,1.2736 -2.776,3.3798 0,2.1716 0.9961,3.3962 2.6779,3.3962 0.9961,0 1.7144,-0.4899 2.1716,-1.5021 0.0978,0.5063 0.245,0.9796 0.4247,1.3717 z m 3.935,0.8407 0,0.8465 c -0.2287,-0.1959 -0.6043,-0.5199 -1.1593,-0.9117 l 0,0.1795 c 0,1.5159 0.0326,2.95 0.0816,3.9622 -0.2123,-0.0161 -0.4572,-0.0326 -0.6857,-0.0326 -0.1962,0 -0.4246,0.0165 -0.6369,0.0326 0.0654,-1.3198 0.0816,-2.8219 0.0816,-4.5173 l 0,-0.4246 c -0.4734,-0.3265 -0.6205,-0.4243 -1.1103,-0.7183 l 0,-0.83 c 0.6857,0.555 1.0287,0.8462 1.0941,0.879 l 0,-2.3159 c 0,-1.7606 -0.0328,-3.0968 -0.0654,-4.0303 0.2123,0.0355 0.4246,0.0516 0.6369,0.0516 0.2285,0 0.4569,-0.0161 0.6857,-0.0516 -0.049,1.0151 -0.0816,3.3146 -0.0816,7.1462 0.4898,0.3104 0.6205,0.4082 1.1593,0.7347 z m 7.5269,-7.617 -0.0652,0.3104 c -0.0978,-0.0164 -0.1959,-0.0164 -0.2775,-0.0164 -0.6041,0 -0.7022,0.294 -0.7022,1.0613 l 0,0.4408 0.0655,2.7269 0,0.1959 c 0,1.8125 -0.7021,2.6776 -2.5146,2.6776 -0.9961,0 -1.8941,-0.3101 -2.5798,-0.898 l -0.0326,-0.8326 0.1304,0 c 0.4901,0.7509 1.1758,1.1265 2.0574,1.1265 1.29,0 1.7798,-0.6857 1.7798,-2.09 l 0,-0.3427 c -0.4082,-0.3591 -1.3717,-0.4246 -2.7757,-0.7185 -1.2574,-0.2776 -1.8615,-0.9471 -1.8615,-2.09 0,-1.2408 0.7838,-1.9622 2.2042,-1.9622 0.9145,0 1.7144,0.3785 2.384,1.0806 0.0981,-0.637 0.3265,-0.9306 0.8816,-0.9306 0.4572,0 0.8654,0.1304 1.3062,0.261 z m -2.1714,1.6328 c 0,-0.2285 -0.0164,-0.4243 -0.2778,-0.6857 -0.4243,-0.4246 -1.0774,-0.7021 -1.6001,-0.7021 -0.8816,0 -1.4205,0.5553 -1.4205,1.5185 0,1.2571 0.9961,1.5511 3.2984,1.9267 l 0,-2.0574 z m 14.2705,5.6387 c -0.1469,-0.0165 -0.3101,-0.0326 -0.4734,-0.0326 -0.1633,0 -0.3104,0.0161 -0.4898,0.0326 -0.9961,-2.9254 -1.7635,-4.8685 -2.2207,-5.8181 -0.5063,1.0312 -1.2246,2.9744 -1.9919,5.8181 -0.1633,-0.0326 -0.3268,-0.0491 -0.4737,-0.0491 -0.1468,0 -0.3101,0.0165 -0.4734,0.0491 -0.604,-2.1254 -1.29,-4.0683 -2.0899,-5.8346 -1.0613,2.7295 -1.7144,4.6752 -1.9922,5.8346 -0.2449,-0.0491 -0.4899,-0.0652 -0.7183,-0.0652 -0.2449,0 -0.4734,0.0161 -0.7022,0.0652 1.535,-3.7256 2.4656,-6.2428 2.7757,-7.5354 0.1633,0.0355 0.294,0.0355 0.4572,0.0355 0.1469,0 0.3104,0 0.4573,-0.0355 0.3265,1.3743 0.9796,3.3038 2.0083,5.7719 1.2246,-3.2683 1.8613,-5.1814 1.9593,-5.7719 0.1633,0.0355 0.3104,0.0516 0.4573,0.0516 0.1632,0 0.3265,-0.0161 0.4898,-0.0516 0.3917,1.4885 1.4533,3.9731 3.0206,7.5354 z m 5.3067,-5.165 c 0,0.9958 -0.4898,1.5185 -1.5349,1.8286 l -1.0939,0.3266 c -0.8164,0.2449 -1.2084,0.604 -1.2084,1.3388 0,0.8002 0.5553,1.339 1.3552,1.339 0.637,0 1.241,-0.3591 1.8451,-1.0615 0.0652,0.343 0.1797,0.6695 0.343,1.0125 -0.5389,0.3266 -1.2246,0.5224 -1.9922,0.5224 -1.5021,0 -2.4492,-0.9306 -2.4492,-2.2042 0,-1.1265 0.5225,-1.7144 1.7309,-2.0574 l 0.7347,-0.212 c 0.849,-0.2288 1.2572,-0.5553 1.2572,-1.3065 0,-0.898 -0.6041,-1.453 -1.5511,-1.453 -0.7674,0 -1.4205,0.4082 -1.9429,1.2245 -0.0981,-0.4082 -0.2288,-0.8163 -0.392,-1.241 0.5553,-0.3756 1.2736,-0.5743 2.0738,-0.5743 1.698,0 2.8247,1.0967 2.8247,2.5175 z m 8.1148,-2.3704 c -1.4369,1.7008 -2.6941,3.1567 -3.7554,4.3977 l 1.4369,1.3578 c 0.8654,0.8167 1.5347,1.4207 2.0736,1.7799 -0.2285,-0.0326 -0.4734,-0.0491 -0.7019,-0.0491 -0.2288,0 -0.4572,0.0165 -0.7024,0.0491 -1.747,-2.2232 -3.0368,-3.2519 -3.3307,-3.2519 -0.1798,0 -0.2614,0.0978 -0.2614,0.2775 l 0,0.5389 c 0,1.9947 0.0164,4.2723 0.0816,6.8575 -0.212,-0.0326 -0.4407,-0.0652 -0.6692,-0.0652 -0.2123,0 -0.4408,0.0326 -0.6696,0.0652 0.0652,-2.0163 0.0817,-4.0002 0.0817,-5.957 0,-1.5375 -0.0165,-3.5294 -0.0817,-6.0004 0.2288,0.0516 0.4573,0.0845 0.6696,0.0845 0.2285,0 0.4572,-0.0329 0.6692,-0.0845 -0.0816,1.2436 -0.0816,2.2071 -0.0816,2.8466 l 0,0.898 c 0,0.1468 0,0.2123 0.1471,0.2123 0.2449,0 1.4043,-1.29 3.3798,-3.9569 0.2613,0.0516 0.5388,0.0681 0.8163,0.0681 0.294,0 0.6044,-0.0165 0.8981,-0.0681 z m 7.3638,0.2639 -0.0652,0.3104 c -0.0981,-0.0164 -0.1959,-0.0164 -0.2775,-0.0164 -0.6043,0 -0.7021,0.294 -0.7021,1.0613 l 0,0.4408 0.0652,2.7269 0,0.1959 c 0,1.8125 -0.7019,2.6776 -2.5144,2.6776 -0.9961,0 -1.8941,-0.3101 -2.5798,-0.898 l -0.0326,-0.8326 0.1304,0 c 0.4898,0.7509 1.1758,1.1265 2.0574,1.1265 1.2898,0 1.7799,-0.6857 1.7799,-2.09 l 0,-0.3427 c -0.4082,-0.3591 -1.3717,-0.4246 -2.7757,-0.7185 -1.2575,-0.2776 -1.8615,-0.9471 -1.8615,-2.09 0,-1.2408 0.7837,-1.9622 2.2042,-1.9622 0.9144,0 1.7144,0.3785 2.3839,1.0806 0.0978,-0.637 0.3266,-0.9306 0.8816,-0.9306 0.4572,0 0.8654,0.1304 1.3062,0.261 z m -2.1716,1.6328 c 0,-0.2285 -0.0162,-0.4243 -0.2775,-0.6857 -0.4247,-0.4246 -1.0778,-0.7021 -1.6002,-0.7021 -0.8816,0 -1.4204,0.5553 -1.4204,1.5185 0,1.2571 0.9961,1.5511 3.2981,1.9267 l 0,-2.0574 z"
         style="fill:#1f1917;fill-opacity:1;fill-rule:nonzero;stroke:none"
         id="path100" /></g></g></svg>
